<?xml version="1.0" encoding="utf-8"?>
<!-- Generator: Adobe Illustrator 12.0.0, SVG Export Plug-In  -->
<!DOCTYPE svg PUBLIC "-//W3C//DTD SVG 1.1//EN" "http://www.w3.org/Graphics/SVG/1.1/DTD/svg11.dtd" [
	<!ENTITY ns_flows "http://ns.adobe.com/Flows/1.0/">
	<!ENTITY ns_svg "http://www.w3.org/2000/svg">
	<!ENTITY ns_xlink "http://www.w3.org/1999/xlink">
]>
<svg  version="1.1" xmlns="&ns_svg;" xmlns:xlink="&ns_xlink;" xmlns:a="http://ns.adobe.com/AdobeSVGViewerExtensions/3.0/"
	 width="157" height="94" viewBox="-0.4 -0.7 157 94" enable-background="new -0.4 -0.7 157 94" xml:space="preserve">
<defs>
</defs>
<path fill-rule="evenodd" clip-rule="evenodd" fill="#585B71" d="M38.3,62.7c8.3,0,15.1,6.8,15.1,15.1c0,8.4-6.8,15.1-15.1,15.1
	c-8.4,0-15.1-6.8-15.1-15.1C23.1,69.5,29.9,62.7,38.3,62.7L38.3,62.7z M38.3,66.9c6.1,0,11,4.9,11,11c0,6.1-4.9,11-11,11
	c-6.1,0-11-4.9-11-11C27.3,71.8,32.2,66.9,38.3,66.9L38.3,66.9z"/>
<path fill-rule="evenodd" clip-rule="evenodd" fill="#585B71" d="M122.9,62.8c8.3,0,15.1,6.8,15.1,15.1c0,8.4-6.8,15.1-15.1,15.1
	c-8.3,0-15.1-6.8-15.1-15.1C107.8,69.6,114.5,62.8,122.9,62.8L122.9,62.8z M122.9,66.9c6.1,0,11,4.9,11,11c0,6.1-4.9,11-11,11
	c-6.1,0-11-4.9-11-11C111.9,71.9,116.8,66.9,122.9,66.9L122.9,66.9z"/>
<path fill="none" stroke="#585B71" stroke-width="5" stroke-linecap="round" stroke-linejoin="round" stroke-miterlimit="10" d="
	M104.1,18.4c0-1.4,2.6-2,4.6-2c3.7,0,14,0.6,16.6,2.3c4.3,2.9,23.3,31.5,24.7,34c1.4,2.5,3.4,5,3.7,8.2c0.3,3.2,1.1,8.6-1.6,10
	c-1,0.5-9.1,1.4-9.9-0.5c-2-5-11.2-14-21-12.9c-9.8,1.1-14.9,9-17.1,8.3L104.1,18.4z"/>
<path fill-rule="evenodd" clip-rule="evenodd" fill="#585B71" d="M16.3,69c-0.2,0.4-11,0.1-11.2,0c-0.3-0.2-0.2-1.3-0.2-1.7l0-28.5
	c0-2.2-0.1-32.3,0-33.8c1.1-0.2,43.6,0,44.7,0c3.5,0,44.2-0.2,44.5,0.1c0.1,0.2,0.3,62.6,0,63.3c-0.6,0.2-32.1,0.2-34.6,0.1
	c-2-0.8-4.2-16.1-23-15.5C27.2,53.2,21.7,57.8,16.3,69L16.3,69z M0.1,7.2L0,68.3c0,4.1,1.2,5.2,5.9,5.2l10.4,0
	c1.2,0,2.2-0.5,2.8-1.6c6.1-18.2,30-19.8,36.8-1.6c1.1,3,1.7,3.1,5.1,3.1l32.5-0.2c4.1,0,5.8-0.4,5.8-5.7l0-62.4
	c-0.7-3-1.6-4.3-4.7-5c-1-0.3-17.4-0.1-19.1-0.1L6.5,0C0.5,0,0.1,1.3,0.1,7.2L0.1,7.2z"/>
<path fill-rule="evenodd" clip-rule="evenodd" fill="#585B71" d="M135.9,42.1l-26.9,0L108.9,25l15.4-0.2L135.9,42.1z M129.6,38.7
	l-16.8,0l-0.1-10.1l10.1-0.2L129.6,38.7z"/>
</svg>
