<?xml version="1.0" encoding="UTF-8"?>
<!DOCTYPE svg PUBLIC "-//W3C//DTD SVG 1.1//EN" "http://www.w3.org/Graphics/SVG/1.1/DTD/svg11.dtd">
<!-- Creator: CorelDRAW X6 -->
<svg xmlns="http://www.w3.org/2000/svg" xml:space="preserve" width="3246px" height="1919px" version="1.1" style="shape-rendering:geometricPrecision; text-rendering:geometricPrecision; image-rendering:optimizeQuality; fill-rule:evenodd; clip-rule:evenodd"
viewBox="0 0 1301 769"
 xmlns:xlink="http://www.w3.org/1999/xlink">
 <defs>
  <style type="text/css">
   <![CDATA[
    .str0 {stroke:gray;stroke-width:37.4377;stroke-linecap:round;stroke-linejoin:round}
    .fil0 {fill:none}
    .fil1 {fill:gray}
    .fil2 {fill:white}
   ]]>
  </style>
 </defs>
 <g id="Слой_x0020_1">
  <metadata id="CorelCorpID_0Corel-Layer"/>
  <path class="fil0 str0" d="M872 153c6,-10 16,-16 33,-16 31,0 117,5 138,19 36,24 194,262 206,283 12,21 28,41 31,68 2,27 10,72 -13,84 -8,4 -76,12 -83,-4 -17,-42 -93,-117 -175,-108 -82,9 -118,75 -137,69 -1,-70 -12,-376 0,-395zm0 0c6,-10 16,-16 33,-16 31,0 117,5 138,19 36,24 194,262 206,283 12,21 28,41 31,68 2,27 10,72 -13,84 -8,4 -76,12 -83,-4 -17,-42 -93,-117 -175,-108 -82,9 -118,75 -137,69 -1,-70 -12,-376 0,-395zm233 182l-186 0 -1 -114 107 -1 81 116z"/>
  <path class="fil1" d="M136 574c-2,3 -91,1 -93,0 -3,-2 -1,-11 -1,-14l0 -237c0,-19 -1,-258 0,-270 9,-2 363,0 372,0 29,0 368,-1 370,1 1,1 2,510 0,516 -5,2 -267,2 -289,1 -17,-6 -35,-134 -192,-129 -77,2 -123,40 -168,133zm-135 -514l-1 509c0,34 10,43 49,43l86 0c10,0 18,-4 23,-14 51,-152 250,-165 306,-13 9,25 14,26 42,26l271 -1c34,0 49,-3 49,-48l0 -520c-6,-25 -13,-36 -39,-41 -8,-2 -145,-1 -159,-1l-574 0c-50,0 -53,11 -53,60z"/>
  <path class="fil2 str0" d="M314 530c59,0 107,48 107,107 0,59 -48,107 -107,107 -59,0 -107,-48 -107,-107 0,-59 48,-107 107,-107z"/>
  <path class="fil2 str0" d="M1028 536c59,0 107,48 107,107 0,59 -48,107 -107,107 -59,0 -107,-48 -107,-107 0,-59 48,-107 107,-107z"/>
 </g>
</svg>
