<?xml version="1.0" encoding="UTF-8"?>
<!DOCTYPE svg PUBLIC "-//W3C//DTD SVG 1.1//EN" "http://www.w3.org/Graphics/SVG/1.1/DTD/svg11.dtd">
<!-- Creator: CorelDRAW X6 -->
<svg xmlns="http://www.w3.org/2000/svg" xml:space="preserve" width="3214px" height="1900px" version="1.1" style="shape-rendering:geometricPrecision; text-rendering:geometricPrecision; image-rendering:optimizeQuality; fill-rule:evenodd; clip-rule:evenodd"
viewBox="0 0 6744 3987"
 xmlns:xlink="http://www.w3.org/1999/xlink">
 <defs>
  <style type="text/css">
   <![CDATA[
    .str1 {stroke:#575B71;stroke-width:194.018;stroke-linecap:round;stroke-linejoin:round}
    .str0 {stroke:#575B71;stroke-width:194.02;stroke-linecap:round;stroke-linejoin:round}
    .fil0 {fill:none}
    .fil1 {fill:#575B71}
    .fil2 {fill:white}
   ]]>
  </style>
 </defs>
 <g id="Слой_x0020_1">
  <metadata id="CorelCorpID_0Corel-Layer"/>
  <g id="_1360932192">
   <path class="fil0 str0" d="M4519 793c30,-52 84,-85 171,-85 158,0 604,25 715,98 185,124 1006,1360 1068,1467 62,107 146,215 159,355 13,140 49,372 -67,433 -42,22 -395,60 -428,-23 -87,-215 -484,-605 -907,-558 -423,47 -613,389 -708,360 -3,-364 -60,-1947 -2,-2047zm0 0c30,-52 84,-85 171,-85 158,0 604,25 715,98 185,124 1006,1360 1068,1467 62,107 146,215 159,355 13,140 49,372 -67,433 -42,22 -395,60 -428,-23 -87,-215 -484,-605 -907,-558 -423,47 -613,389 -708,360 -3,-364 -60,-1947 -2,-2047zm1206 943l-966 1 -5 -593 554 -8 417 600zm-1206 -943c30,-52 84,-85 171,-85 158,0 604,25 715,98 185,124 1006,1360 1068,1467 62,107 146,215 159,355 13,140 49,372 -67,433 -42,22 -395,60 -428,-23 -87,-215 -484,-605 -907,-558 -423,47 -613,389 -708,360 -3,-364 -60,-1947 -2,-2047zm0 0c30,-52 84,-85 171,-85 158,0 604,25 715,98 185,124 1006,1360 1068,1467 62,107 146,215 159,355 13,140 49,372 -67,433 -42,22 -395,60 -428,-23 -87,-215 -484,-605 -907,-558 -423,47 -613,389 -708,360 -3,-364 -60,-1947 -2,-2047zm1206 943l-966 1 -5 -593 554 -8 417 600z"/>
   <path class="fil1" d="M703 2975c-8,17 -474,5 -483,0 -14,-9 -7,-56 -7,-75l0 -1228c0,-97 -6,-1336 2,-1399 49,-8 1881,-2 1928,-2 152,0 1907,-7 1920,6 3,7 11,2642 0,2673 -24,9 -1386,8 -1495,4 -87,-32 -180,-694 -994,-669 -399,13 -636,208 -868,691zm-698 -2665l-5 2639c0,176 53,225 254,225l448 0c53,-1 94,-22 119,-70 263,-786 1296,-855 1586,-68 48,129 73,136 220,136l1402 -7c178,0 252,-15 252,-247l-1 -2694c-29,-131 -68,-186 -203,-215 -44,-12 -752,-6 -823,-6l-2974 -2c-258,0 -276,55 -276,310z"/>
   <path class="fil2 str1" d="M1625 2747c307,0 556,249 556,556 0,307 -249,556 -556,556 -307,0 -556,-249 -556,-556 0,-307 249,-556 556,-556zm0 0c307,0 556,249 556,556 0,307 -249,556 -556,556 -307,0 -556,-249 -556,-556 0,-307 249,-556 556,-556zm0 0c307,0 556,249 556,556 0,307 -249,556 -556,556 -307,0 -556,-249 -556,-556 0,-307 249,-556 556,-556z"/>
   <path class="fil2 str1" d="M5328 2779c307,0 556,249 556,556 0,307 -249,556 -556,556 -307,0 -556,-249 -556,-556 0,-307 249,-556 556,-556zm0 0c307,0 556,249 556,556 0,307 -249,556 -556,556 -307,0 -556,-249 -556,-556 0,-307 249,-556 556,-556zm0 0c307,0 556,249 556,556 0,307 -249,556 -556,556 -307,0 -556,-249 -556,-556 0,-307 249,-556 556,-556z"/>
  </g>
 </g>
</svg>
