<?xml version="1.0" encoding="utf-8"?>
<!-- Generator: Adobe Illustrator 12.0.0, SVG Export Plug-In . SVG Version: 6.00 Build 51448)  -->
<!DOCTYPE svg PUBLIC "-//W3C//DTD SVG 1.1//EN" "http://www.w3.org/Graphics/SVG/1.1/DTD/svg11.dtd" [
	<!ENTITY ns_svg "http://www.w3.org/2000/svg">
	<!ENTITY ns_xlink "http://www.w3.org/1999/xlink">
]>
<svg  version="1.1" id="Layer_1" xmlns="&ns_svg;" xmlns:xlink="&ns_xlink;" width="58.463" height="61.038"
	 viewBox="0 0 58.463 61.038" overflow="visible" enable-background="new 0 0 58.463 61.038" xml:space="preserve">
<g>
	<path fill-rule="evenodd" clip-rule="evenodd" fill="#575B71" d="M22.916,54.191c4.439,2.351,13.294,2.351,17.733,0
		c0,0.515-0.004,1.027,0.001,1.542c0.004,0.38-0.013,0.358-0.213,0.556c-0.157,0.153-0.225,0.228-0.406,0.364
		c-0.384,0.286-0.626,0.367-0.989,0.551c-0.365,0.182-0.753,0.304-1.151,0.426c-3.037,0.937-6.552,1.002-9.71,0.57
		c-1.534-0.209-3.385-0.697-4.626-1.528l-0.426-0.344c-0.134-0.156-0.214-0.279-0.216-0.555
		C22.912,55.247,22.916,54.72,22.916,54.191L22.916,54.191z M22.916,49.129c1.417,0.75,3.362,1.257,5.113,1.487
		c0.375,0.049,0.839,0.124,1.203,0.134c0.414,0.01,0.85,0.083,1.254,0.081c0.491-0.002,0.826,0.04,1.297,0.04
		c0.468,0,0.783-0.043,1.255-0.04c0.858,0.003,2.735-0.225,3.613-0.396c0.905-0.176,2.27-0.525,3.081-0.889l0.917-0.418
		c0,0.536,0.014,1.088,0.002,1.622c-0.008,0.406-0.438,0.723-0.747,0.913c-0.73,0.445-1.394,0.71-2.308,0.972
		c-0.834,0.239-2.527,0.572-3.466,0.624l-1.581,0.081c-0.25,0.002-0.322,0.041-0.807,0.041c-0.313,0-0.511-0.039-0.768-0.041
		c-0.306-0.005-0.525-0.006-0.777-0.034c-0.253-0.027-0.521-0.034-0.762-0.047c-0.948-0.053-2.622-0.386-3.466-0.625
		c-0.711-0.2-3.016-0.974-3.055-1.843C22.89,50.266,22.916,49.664,22.916,49.129L22.916,49.129z M47.371,50.831
		c-1.253,0-2.043-0.038-3.272-0.171c-0.247-0.026-0.6-0.114-0.858-0.114v-2.471l2.024,0.203c3.214,0.171,6.823-0.125,9.735-1.279
		c0.186-0.072,0.27-0.131,0.444-0.202c0.209-0.087,0.259-0.131,0.429-0.221c0,0.527-0.001,1.055,0.001,1.582
		c0.002,0.443-0.279,0.658-0.665,0.914C53.33,50.318,49.789,50.831,47.371,50.831L47.371,50.831z M22.916,44.024
		c1.865,0.987,4.123,1.426,6.322,1.655c0.683,0.069,1.229,0.09,1.897,0.087c0.4-0.002,0.489,0.044,0.647,0.044
		c0.203,0,0.342-0.046,0.606-0.044c0.217,0.001,0.433,0,0.65,0.001l1.25-0.085c2.096-0.163,4.625-0.739,6.36-1.658
		c0,0.541,0.003,1.082,0.002,1.622c0,0.236-0.016,0.317-0.264,0.546c-0.75,0.694-1.745,1.042-2.769,1.362
		c-0.756,0.235-1.932,0.445-2.73,0.549c-3.231,0.426-9.238,0.208-11.677-1.861c-0.167-0.143-0.286-0.317-0.296-0.556
		C22.893,45.154,22.916,44.563,22.916,44.024L22.916,44.024z M47.775,45.727c-1.653,0-2.429,0.021-4.122-0.209
		c-0.347-0.049-0.42,0.057-0.416-0.314l0.003-2.231c0.144,0.068,1.501,0.198,1.782,0.201c0.22,0.003,0.239,0.037,0.443,0.043
		c2.228,0.066,4.258,0.026,6.437-0.41c0.734-0.146,1.426-0.313,2.103-0.528c0.55-0.173,1.85-0.76,1.868-0.764
		c0,0.512-0.004,1.027,0.001,1.54c0.004,0.338-0.041,0.39-0.207,0.563c-0.006,0.007-0.014,0.014-0.021,0.021l-0.396,0.332
		c-1.296,0.853-3.088,1.304-4.639,1.516C49.732,45.605,48.773,45.727,47.775,45.727L47.775,45.727z M22.916,40.703
		c0-0.514,1.136-1.054,1.564-1.27c1.781-0.898,5.14-1.282,7.302-1.282c1.825,0,3.64,0.212,5.11,0.559
		c0.76,0.179,1.493,0.411,2.136,0.697c0.372,0.166,1.621,0.819,1.621,1.255c0,0.468-1.147,1.11-1.555,1.279
		c-0.667,0.277-1.416,0.546-2.173,0.702c-3.629,0.753-6.615,0.762-10.243,0.007c-1.035-0.215-2.194-0.607-3.066-1.186
		C23.415,41.334,22.916,40.979,22.916,40.703L22.916,40.703z M40.729,37.382c0.36,0.03,2.104,0.54,3.725,0.648
		c1.336,0.092,1.81,0.121,3.159,0.121c2.263,0,5.478-0.518,7.474-1.354l0.786-0.348l0.003,1.581
		c-0.001,0.653-0.912,1.039-1.42,1.294c-2.29,1.149-6.66,1.544-9.318,1.263L43.2,40.379c-0.063-0.761-0.657-1.71-1.237-2.165
		c-0.494-0.386-0.442-0.364-1.006-0.693c-0.048-0.028-0.068-0.037-0.104-0.057L40.729,37.382z M40.729,37.382L40.729,37.382z
		 M38.139,31.306c2.641,1.397,6.021,1.782,9.07,1.782c2.59,0,5.406-0.393,7.745-1.325c0.276-0.11,0.697-0.364,0.919-0.417
		c0,0.541,0.003,1.083,0.003,1.624c0,0.234-0.017,0.315-0.265,0.545c-0.724,0.668-1.841,1.066-2.788,1.341
		c-1.597,0.463-4.089,0.77-5.812,0.728c-2.52-0.064-6.017-0.316-8.11-1.718c-0.303-0.202-0.745-0.485-0.764-0.897
		C38.113,32.442,38.139,31.84,38.139,31.306L38.139,31.306z M38.139,27.984c0-0.471,1.131-1.031,1.472-1.202
		c1.689-0.854,4.771-1.31,6.788-1.31c1.458,0,2.248-0.022,3.742,0.185c1.401,0.193,2.953,0.496,4.221,1.084
		c0.397,0.185,1.511,0.75,1.511,1.243c0,0.487-1.065,1.001-1.498,1.214c-2.078,1.025-5.245,1.297-7.733,1.297
		c-2.058,0-4.665-0.368-6.491-1.081c-0.185-0.071-0.32-0.146-0.479-0.21C39.293,29.052,38.139,28.407,38.139,27.984L38.139,27.984z
		 M35.589,27.943v7.898l-1.419-0.16c-3.679-0.204-6.452-0.109-9.943,1.067c-1.277,0.429-2.773,1.276-3.455,2.457
		c-0.19,0.328-0.447,1.027-0.447,1.537v2.471H6.397V18.342c0-0.15,0.357-0.3,0.486-0.363c0.103-0.051,0.155-0.083,0.259-0.145
		l0.836-0.461c0.099-0.057,0.186-0.094,0.289-0.157l6.984-3.828c0.115-0.058,0.167-0.094,0.258-0.146l2.225-1.219
		c1.198-0.618,2.631-1.497,3.887-2.146l1.415-0.771c0.153-0.088,1.021-0.601,1.13-0.594c0.128,0.01,2.639,1.451,3.34,1.798
		l5.587,3.078c0.372,0.21,0.73,0.385,1.097,0.604c0.378,0.227,0.754,0.392,1.125,0.618c0.101,0.061,0.151,0.083,0.262,0.143
		c0.122,0.064,0.155,0.096,0.284,0.161l5.562,3.063c0.121,0.069,0.525,0.218,0.525,0.365v4.942c0,0.165-0.173,0.118-0.495,0.195
		c-1.083,0.256-1.563,0.383-2.611,0.829c-0.895,0.382-1.853,0.933-2.47,1.662C36.01,26.396,35.589,27.175,35.589,27.943
		L35.589,27.943z M4.171,16.521h-1.58v-2.065c0.247-0.058,0.455-0.22,0.674-0.338c0.552-0.296,1.15-0.586,1.682-0.911l12.435-6.758
		c0.139-0.07,0.219-0.108,0.344-0.184c0.967-0.59,2.069-1.072,3.038-1.661c0.122-0.074,0.215-0.11,0.344-0.182l2.026-1.093
		c1.48-0.752,0.646-0.692,2.388,0.175l0.999,0.54c0.128,0.063,0.212,0.107,0.342,0.185c0.118,0.073,0.2,0.101,0.319,0.168
		l5.089,2.766c0.563,0.295,1.103,0.635,1.672,0.92l5.046,2.729c0.118,0.068,0.196,0.115,0.339,0.187
		c0.145,0.072,0.192,0.116,0.337,0.189l4.727,2.563c0.125,0.074,0.231,0.116,0.348,0.178c0.126,0.065,0.194,0.12,0.336,0.19
		c0.146,0.072,0.206,0.116,0.339,0.188c0.117,0.064,0.296,0.098,0.296,0.231v1.984h-1.498c-0.15,0-0.217-0.067-0.316-0.13
		c-0.641-0.399-1.521-0.813-2.195-1.204l-1.861-1.015c-1.049-0.543-2.06-1.157-3.104-1.716L31.77,9.728
		c-0.824-0.457-1.638-0.944-2.484-1.362c-0.118-0.06-0.182-0.092-0.289-0.157c-0.113-0.067-0.197-0.1-0.315-0.17
		c-1.125-0.674-2.315-1.232-3.442-1.905c-1.132-0.676-1.326-0.436-2.378,0.126c-0.437,0.233-0.814,0.466-1.255,0.688
		c-0.128,0.063-0.162,0.097-0.283,0.161c-0.129,0.069-0.204,0.11-0.313,0.175l-2.169,1.19c-0.123,0.063-0.204,0.095-0.321,0.165
		l-0.624,0.348c-0.21,0.109-0.418,0.213-0.632,0.34c-0.204,0.122-0.422,0.249-0.624,0.349c-0.733,0.361-1.75,0.973-2.499,1.39
		l-2.495,1.351c-0.424,0.236-0.797,0.444-1.229,0.677c-0.832,0.445-1.623,0.956-2.47,1.376c-0.648,0.321-1.239,0.706-1.889,1.026
		C5.773,15.637,4.302,16.521,4.171,16.521L4.171,16.521z M0,13.807v3.971c0,0.399,0.184,0.731,0.394,0.942
		c0.239,0.24,0.519,0.393,0.982,0.393h2.43v25.155c0,1.018,0.578,1.54,1.579,1.54h14.94v10.044c0,4.035,7.411,5.164,10.568,5.145
		l1.092,0.042c0.643,0.005,1.45-0.046,2.112-0.115c0.182-0.021,0.375-0.03,0.523-0.044l1.512-0.188
		c1.491-0.236,2.998-0.631,4.327-1.3c1.003-0.503,1.867-1.144,2.415-2.08c0.12-0.205,0.249-0.544,0.302-0.833
		c0.139-0.755,0.064-2.511,0.064-3.339c0.129,0.062,1.522,0.202,1.782,0.203c0.225,0,0.26,0.03,0.444,0.04l1.579,0.04
		c1.97,0,3.766-0.149,5.555-0.6c1.091-0.273,2.098-0.555,3.083-1.046l0.974-0.564c0.854-0.579,1.805-1.523,1.805-2.853V27.943
		c0-1.043-0.676-1.977-1.403-2.565c-2.301-1.856-6.644-2.498-9.488-2.498l-2.553,0.079c-0.185,0.014-0.384,0.039-0.522,0.042v-3.889
		h2.509c0.682,0,1.295-0.573,1.295-1.255v-4.173c0-0.349-0.159-0.653-0.333-0.841c-0.099-0.107-0.195-0.183-0.317-0.251
		c-0.132-0.075-0.245-0.146-0.389-0.218L41.54,9.271c-1.02-0.504-2.431-1.366-3.441-1.863c-1.042-0.514-2.019-1.161-3.063-1.676
		c-0.154-0.075-0.225-0.123-0.365-0.201l-0.77-0.406c-0.159-0.08-0.23-0.137-0.391-0.215c-0.779-0.388-1.521-0.817-2.281-1.243
		c-0.27-0.149-0.533-0.268-0.791-0.425c-0.24-0.146-0.514-0.284-0.761-0.412c-0.131-0.068-0.225-0.135-0.365-0.203l-2.705-1.465
		c-0.126-0.078-0.245-0.128-0.372-0.195c-0.135-0.069-0.239-0.135-0.391-0.216c-0.26-0.139-0.492-0.289-0.755-0.419
		c-0.741-0.368-1.017-0.488-1.766-0.053l-3.064,1.674c-1.223,0.619-2.638,1.411-3.833,2.079L8.712,8.225
		c-0.74,0.451-1.564,0.813-2.313,1.25L4.103,10.74c-0.267,0.15-0.5,0.262-0.769,0.406L2.185,11.78
		c-0.129,0.074-0.272,0.135-0.405,0.202c-0.422,0.222-1.196,0.587-1.469,0.919C0.12,13.133,0,13.401,0,13.807L0,13.807z"/>
	<path fill="#575B71" d="M27.66,29.952c0,1.026,0.126,1.765,0.381,2.226c0.252,0.457,0.659,0.688,1.225,0.688
		c0.578,0,0.997-0.227,1.252-0.675c0.255-0.453,0.385-1.193,0.385-2.238c0-1.041-0.125-1.791-0.381-2.252
		c-0.251-0.466-0.663-0.696-1.232-0.696c-0.557,0-0.968,0.239-1.232,0.713C27.795,28.191,27.66,28.938,27.66,29.952L27.66,29.952z
		 M24.468,29.927c0-1.455,0.439-2.626,1.324-3.51c0.884-0.885,2.05-1.325,3.5-1.325c1.445,0,2.615,0.44,3.499,1.325
		c0.888,0.884,1.333,2.055,1.333,3.51c0,1.451-0.44,2.616-1.324,3.501c-0.884,0.884-2.054,1.325-3.508,1.325
		c-1.458,0-2.623-0.441-3.504-1.322C24.907,32.551,24.468,31.385,24.468,29.927L24.468,29.927z M14.686,23.398
		c0,1.027,0.131,1.773,0.386,2.243c0.259,0.475,0.674,0.708,1.25,0.708c0.573,0,0.984-0.227,1.236-0.684
		c0.247-0.451,0.372-1.207,0.372-2.268c0-1.039-0.125-1.785-0.381-2.248c-0.252-0.455-0.663-0.688-1.227-0.688
		c-0.566,0-0.981,0.235-1.242,0.709C14.817,21.641,14.686,22.383,14.686,23.398L14.686,23.398z M11.493,23.407
		c0-1.451,0.44-2.616,1.324-3.501c0.884-0.886,2.054-1.329,3.512-1.329c1.446,0,2.611,0.44,3.496,1.319
		c0.883,0.881,1.323,2.052,1.323,3.511s-0.444,2.633-1.333,3.521c-0.884,0.89-2.048,1.333-3.487,1.333
		c-1.458,0-2.627-0.443-3.512-1.329C11.934,26.047,11.493,24.874,11.493,23.407L11.493,23.407z M16.773,34.777l9.63-16.226H28.8
		l-9.618,16.226H16.773z"/>
</g>
</svg>
