<?xml version="1.0" encoding="UTF-8"?>
<!DOCTYPE svg PUBLIC "-//W3C//DTD SVG 1.1//EN" "http://www.w3.org/Graphics/SVG/1.1/DTD/svg11.dtd">
<!-- Creator: CorelDRAW X6 -->
<svg xmlns="http://www.w3.org/2000/svg" xml:space="preserve" width="2165px" height="1970px" version="1.1" style="shape-rendering:geometricPrecision; text-rendering:geometricPrecision; image-rendering:optimizeQuality; fill-rule:evenodd; clip-rule:evenodd"
viewBox="0 0 299 272"
 xmlns:xlink="http://www.w3.org/1999/xlink">
 <defs>
  <style type="text/css">
   <![CDATA[
    .str0 {stroke:gray;stroke-width:13.2038;stroke-linecap:round;stroke-linejoin:round}
    .fil0 {fill:none}
    .fil1 {fill:gray}
   ]]>
  </style>
 </defs>
 <g id="Слой_x0020_1">
  <metadata id="CorelCorpID_0Corel-Layer"/>
  <g id="_1202761488">
   <line class="fil0 str0" x1="287" y1="29" x2="152" y2= "28" />
   <polyline class="fil0 str0" points="170,7 135,30 169,49 "/>
   <path class="fil1" d="M165 149l52 0 0 27 -52 0 0 -27zm65 -86l6 0c14,0 29,0 42,0 8,0 11,1 16,4 9,6 3,18 -4,36 -11,25 -22,51 -33,76 -3,6 -5,5 -12,5l-115 1c2,9 2,27 25,24l107 1c15,0 15,13 0,14l-98 0c-16,0 -32,2 -42,-7l-5 -14c-2,-4 -25,-83 -27,-90 -7,-25 -14,-48 -21,-73 -6,-22 -11,-25 -31,-25 -8,0 -16,0 -24,0 -21,0 -16,-16 -2,-17l39 0c11,0 20,6 25,14 2,3 3,5 4,9l13 41c6,0 19,0 26,0 27,0 82,0 110,0zm18 113l-23 0 0 -27 36 0 -10 22c-1,2 -1,4 -3,4zm-128 -27l37 0 0 27 -26 0c-2,0 -2,0 -4,-1l-8 -26zm45 -38l52 0 0 32 -52 0 0 -32zm-54 0l46 0 0 32 -38 0c0,0 -8,-30 -8,-32zm152 32l-38 0 0 -32 54 -1 -16 33zm-98 -69l52 0 0 29 -52 0 0 -29zm-66 0l58 0 0 29 -48 0 -10 -30zm182 30l-56 0 0 -29 67 0 -11 29z"/>
   <path class="fil1" d="M201 251c0,9 3,15 11,19 5,2 10,2 15,0 18,-7 16,-36 -7,-37 -11,-1 -20,8 -20,18z"/>
   <path class="fil1" d="M138 250c0,6 1,12 6,17 8,7 20,7 27,0 8,-8 8,-20 1,-27 -7,-8 -20,-8 -28,-1 -3,3 -6,7 -6,11z"/>
  </g>
 </g>
</svg>
