<?xml version="1.0" encoding="UTF-8"?>
<!DOCTYPE svg PUBLIC "-//W3C//DTD SVG 1.1//EN" "http://www.w3.org/Graphics/SVG/1.1/DTD/svg11.dtd">
<!-- Creator: CorelDRAW X6 -->
<svg xmlns="http://www.w3.org/2000/svg" xml:space="preserve" width="2079px" height="1900px" version="1.1" style="shape-rendering:geometricPrecision; text-rendering:geometricPrecision; image-rendering:optimizeQuality; fill-rule:evenodd; clip-rule:evenodd"
viewBox="0 0 343 313"
 xmlns:xlink="http://www.w3.org/1999/xlink">
 <defs>
  <style type="text/css">
   <![CDATA[
    .str0 {stroke:#575B71;stroke-width:15.0639;stroke-linecap:round;stroke-linejoin:round}
    .fil1 {fill:none}
    .fil0 {fill:#575B71}
   ]]>
  </style>
 </defs>
 <g id="Слой_x0020_1">
  <metadata id="CorelCorpID_0Corel-Layer"/>
  <g id="_1360975552">
   <circle class="fil0" cx="176" cy="292" r="22"/>
   <circle class="fil0" cx="248" cy="291" r="22"/>
   <path class="fil1 str0" d="M324 37l-154 -1m154 1l-154 -1"/>
   <path class="fil1 str0" d="M190 11l-39 27 38 21m1 -48l-39 27 38 21"/>
   <path class="fil0" d="M188 170l59 0 0 30 -59 0 0 -30zm148 -97c13,0 3,24 -5,45 -13,29 -25,58 -38,87 -3,7 -6,6 -13,6l-132 2c2,10 3,31 29,28l122 1c18,0 18,15 0,15l-112 0c-31,0 -42,6 -53,-24 -2,-4 -28,-94 -31,-103 -8,-28 -16,-55 -24,-83 -7,-25 -12,-29 -36,-29 -9,0 -18,0 -27,0 -24,0 -18,-19 -2,-19l45 0c12,0 23,7 29,16 2,3 3,6 5,10l15 46 229 1zm-54 127l-26 0 0 -30 41 0 -11 25c-1,2 -1,5 -3,5zm-146 -30l42 0 0 30 -29 0c-2,0 -2,0 -4,-1l-9 -30zm51 -43l59 0 0 37 -59 0 0 -37zm-62 0l53 0 0 37 -43 0c0,0 -9,-35 -9,-36zm173 36l-43 0 0 -37 61 -1 -18 38zm-112 -79l59 0 0 34 -59 0 0 -34zm-75 0l66 0 0 34 -55 0 -11 -34zm208 34l-64 0 0 -34 76 0 -12 34z"/>
  </g>
 </g>
</svg>
