<?xml version="1.0" encoding="utf-8"?>
<!-- Generator: Adobe Illustrator 12.0.0, SVG Export Plug-In  -->
<!DOCTYPE svg PUBLIC "-//W3C//DTD SVG 1.1//EN" "http://www.w3.org/Graphics/SVG/1.1/DTD/svg11.dtd" [
	<!ENTITY ns_flows "http://ns.adobe.com/Flows/1.0/">
	<!ENTITY ns_svg "http://www.w3.org/2000/svg">
	<!ENTITY ns_xlink "http://www.w3.org/1999/xlink">
]>
<svg  version="1.1" xmlns="&ns_svg;" xmlns:xlink="&ns_xlink;" xmlns:a="http://ns.adobe.com/AdobeSVGViewerExtensions/3.0/"
	 width="103" height="93" viewBox="-0.9 -0.3 103 93" enable-background="new -0.9 -0.3 103 93" xml:space="preserve">
<defs>
</defs>
<path fill-rule="evenodd" clip-rule="evenodd" fill="#585B71" d="M52,92.6c3.5,0,6.4-2.9,6.4-6.4c0-3.5-2.9-6.4-6.4-6.4
	c-3.5,0-6.4,2.9-6.4,6.4C45.6,89.8,48.5,92.6,52,92.6L52,92.6z"/>
<path fill-rule="evenodd" clip-rule="evenodd" fill="#585B71" d="M73.4,92.6c3.5,0,6.4-2.9,6.4-6.4c0-3.5-2.9-6.4-6.4-6.4
	c-3.5,0-6.4,2.9-6.4,6.4C67,89.7,69.9,92.6,73.4,92.6L73.4,92.6z"/>
<line fill="none" stroke="#585B71" stroke-width="5" stroke-linecap="round" stroke-linejoin="round" stroke-miterlimit="10" x1="95.7" y1="10.8" x2="50.2" y2="10.4"/>
<polyline fill="none" stroke="#585B71" stroke-width="5" stroke-linecap="round" stroke-linejoin="round" stroke-miterlimit="10" points="
	56.3,3.1 44.7,11.1 55.9,17.4 "/>
<path fill-rule="evenodd" clip-rule="evenodd" fill="#585B71" d="M55.7,50.4h17.5v9H55.7V50.4z M99.5,21.7c3.8,0,0.8,7-1.5,13.2
	c-3.7,8.6-7.4,17.2-11.1,25.8c-0.9,2.1-1.8,1.8-4,1.8L43.9,63c0.7,3,0.8,9.1,8.5,8.3l36,0.3c5.2,0,5.2,4.5,0,4.6H55.3
	c-9.1,0-12.5,1.8-15.8-7c-0.6-1.3-8.3-27.9-9.1-30.5c-2.4-8.3-4.8-16.3-7.2-24.6c-2.1-7.4-3.7-8.6-10.5-8.6c-2.6,0-5.3,0-7.9,0
	c-7.1,0-5.4-5.6-0.7-5.6h13.3c3.5,0,6.9,2.1,8.5,4.9c0.6,1,1,1.8,1.4,2.9l4.3,13.7L99.5,21.7z M83.6,59.4h-7.7v-9H88l-3.4,7.5
	C84.4,58.4,84.2,59.4,83.6,59.4L83.6,59.4z M40.5,50.4l12.4-0.1v9h-8.6c-0.6,0-0.7-0.1-1.3-0.2L40.5,50.4z M55.7,37.6h17.5v10.8
	H55.7V37.6z M37.4,37.6l15.6-0.1v10.8H40.1C40.1,48.4,37.4,38.1,37.4,37.6L37.4,37.6z M88.6,48.4H75.8V37.6l18.1-0.4L88.6,48.4z
	 M55.7,24.9h17.5v9.9H55.7V24.9z M33.4,24.9l19.5,0.1v9.9H36.7L33.4,24.9z M94.8,34.8H75.8v-9.9h22.5L94.8,34.8z"/>
</svg>
