<?xml version="1.0" encoding="utf-8"?>
<!-- Generator: Adobe Illustrator 12.0.0, SVG Export Plug-In  -->
<!DOCTYPE svg PUBLIC "-//W3C//DTD SVG 1.1//EN" "http://www.w3.org/Graphics/SVG/1.1/DTD/svg11.dtd" [
	<!ENTITY ns_flows "http://ns.adobe.com/Flows/1.0/">
	<!ENTITY ns_svg "http://www.w3.org/2000/svg">
	<!ENTITY ns_xlink "http://www.w3.org/1999/xlink">
]>
<svg  version="1.1" xmlns="&ns_svg;" xmlns:xlink="&ns_xlink;" xmlns:a="http://ns.adobe.com/AdobeSVGViewerExtensions/3.0/"
	 width="44" height="38" viewBox="-0.8 -0.1 44 38" enable-background="new -0.8 -0.1 44 38" xml:space="preserve">
<defs>
</defs>
<path fill-rule="evenodd" clip-rule="evenodd" fill="#585B71" d="M1.2,33.6V18.2c0-1.2,0.3-2.8,2.9-3.1h26.3
	c1.9,0.1,2.9,0.9,2.9,3.7v12.9c0.2,3.7-0.5,4.5-2.9,4.6H4.1c-1.8-0.1-2.5-0.7-2.8-1.6C1.3,34.4,1.2,34,1.2,33.6L1.2,33.6z M0,19
	v13.8c0,3.3,0.7,4.4,4,4.6l25.8,0.1c4,0,4.7-1.6,4.8-4.5V18.9c-0.1-3.5-1.8-5.1-4.9-5.1H4.8C1.2,13.8-0.1,15.8,0,19L0,19z"/>
<path fill-rule="evenodd" clip-rule="evenodd" fill="#585B71" d="M10.8,5.6c0.1-1.3,0.5-4.1,2.8-3.8l0,0c1.1,0,1.4,0.1,2.5,0.1
	C16.7,2,17.3,2,17.8,2.1c1.2,0.2,2.4,0.3,3.6,0.5c3,0.3,5.9,0.7,8.9,1.1c0.6,0.1,1.2,0.1,1.8,0.2c1.3,0.2,6.6,0.7,7.5,1.1
	c0.1,0.1,0.2,0.1,0.3,0.2c1.3,0.8,1.3,4.1,0.9,4.1 M14.3,0C12-0.1,11,0.6,10,2.2C9.6,3.1,9.5,3.5,9.3,4.6L9,7.3
	c-0.2,1.6-0.4,3.3-0.6,4.9l0,0l1.5-0.1c0.1,0,0.1-0.2,0.1-0.5l0.3-1.8c0.6,0,2.5,0.2,3.1,0.3l5.2,0.7c4.3,0.6,8.7,1.1,13.1,1.6
	c1.7,0.2,3.5,0.4,5.2,0.6c0.9,0.1,2.3,0.3,3.2,0.4c0.3,0,0.3-0.1,0.3,0.4c-0.2,2.3-0.6,4.9-0.8,7.3c-0.1,0.9-0.3,1.6-0.8,2.2
	c-0.7,0.8-1.5,1-2.5,0.9v2c4.7-0.8,4.5-3.3,5-7.3c0.1-0.9,0.2-1.8,0.3-2.7c0.1-0.9,0.2-1.8,0.3-2.7c0.2-1.4,0.7-4.5,0.7-5.9
	c0-1.4-0.6-2.4-1.3-3.1c-1.5-1.5-2.9-1.4-5-1.7"/>
<path fill-rule="evenodd" clip-rule="evenodd" fill="#585B71" d="M16.8,22.8c0,1,0.1,1.7,0.9,2.5c0.1,0.1,0.3,0.2,0.4,0.3
	c2.2,1.5,4.3-0.5,4.3-1.4h0.2C22.6,25,24,26,25,26h0.5c0.7,0,1.5-0.5,1.8-0.9c0.5-0.7,0.8-1.1,0.8-2.1c0-2-2.6-3.6-4.7-2.1
	c-0.3,0.3-0.9,0.8-0.9,1.4h-0.2c0-0.5-0.6-1.1-0.9-1.4c-1.2-0.9-2.8-0.7-3.9,0.3l-0.4,0.6C17,22,16.8,22.4,16.8,22.8L16.8,22.8z"/>
<path fill-rule="evenodd" clip-rule="evenodd" fill="#585B71" d="M14.5,32.2c0,0.1,0,0.1,0.1,0.1H20v-2.7h-5.5V32.2z"/>
<path fill-rule="evenodd" clip-rule="evenodd" fill="#585B71" d="M22.7,32.3H28c0.1,0,0.1,0,0.1-0.1v-2.6h-5.4V32.3z"/>
<rect x="6.6" y="29.6" fill-rule="evenodd" clip-rule="evenodd" fill="#585B71" width="5.3" height="2.7"/>
</svg>
