<?xml version="1.0" encoding="utf-8"?>
<!-- Generator: Adobe Illustrator 12.0.0, SVG Export Plug-In  -->
<!DOCTYPE svg PUBLIC "-//W3C//DTD SVG 1.1//EN" "http://www.w3.org/Graphics/SVG/1.1/DTD/svg11.dtd" [
	<!ENTITY ns_flows "http://ns.adobe.com/Flows/1.0/">
	<!ENTITY ns_svg "http://www.w3.org/2000/svg">
	<!ENTITY ns_xlink "http://www.w3.org/1999/xlink">
]>
<svg  version="1.1" xmlns="&ns_svg;" xmlns:xlink="&ns_xlink;" xmlns:a="http://ns.adobe.com/AdobeSVGViewerExtensions/3.0/"
	 width="38" height="39" viewBox="-0.3 -0.5 38 39" enable-background="new -0.3 -0.5 38 39" xml:space="preserve">
<defs>
</defs>
<path fill-rule="evenodd" clip-rule="evenodd" fill="#585B71" d="M14.4,34.1c2.8,1.5,8.4,1.5,11.2,0c0,0.3,0,0.7,0,1
	c0,0.2,0,0.2-0.1,0.3c-0.1,0.1-0.1,0.1-0.3,0.2c-0.2,0.2-0.4,0.2-0.6,0.3s-0.5,0.2-0.7,0.3c-1.9,0.6-4.1,0.6-6.1,0.4
	c-1-0.1-2.1-0.5-2.9-1l-0.3-0.2c-0.1-0.1-0.1-0.2-0.1-0.3C14.4,34.8,14.4,34.5,14.4,34.1L14.4,34.1z M14.4,31
	c2.6,1.4,8,1.4,10.6,0.3l0.6-0.3c0,0.3,0,0.7,0,1c0,0.3-0.3,0.5-0.5,0.6c-0.5,0.3-0.9,0.5-1.5,0.6c-2.1,0.6-5.1,0.6-7.3,0
	c-0.5-0.1-1.9-0.6-1.9-1.2C14.4,31.7,14.4,31.3,14.4,31L14.4,31z M29.9,32c-0.8,0-1.3,0-2.1-0.1c-0.1,0-0.4-0.1-0.5-0.1v-1.6
	l1.3,0.1c2,0.1,4.3-0.1,6.1-0.8c0.1-0.1,0.2-0.1,0.3-0.1c0.1-0.1,0.2-0.1,0.3-0.1c0,0.3,0,0.7,0,1c0,0.3-0.2,0.4-0.4,0.6
	C33.6,31.7,31.4,32,29.9,32L29.9,32z M14.4,27.7c2.8,1.5,8.4,1.5,11.2,0c0,0.3,0,0.7,0,1c0,0.1,0,0.2-0.2,0.3
	c-0.5,0.4-1.1,0.7-1.7,0.9c-0.5,0.1-1.2,0.3-1.7,0.3c-2,0.3-5.8,0.1-7.3-1.2c-0.1-0.1-0.2-0.2-0.2-0.3
	C14.4,28.4,14.4,28.1,14.4,27.7L14.4,27.7z M27.5,28.7c-0.2,0-0.3,0.1-0.3-0.2v-1.4c0.1,0,1,0.1,1.1,0.1c0.1,0,0.1,0,0.3,0
	c1.4,0.1,2.7,0,4.1-0.3c0.5-0.1,0.9-0.2,1.3-0.3c0.3-0.1,1.2-0.5,1.2-0.5c0,0.3,0,0.7,0,1c0,0.2,0,0.2-0.1,0.3l0,0l-0.3,0.2
	C33,28.9,29.6,29,27.5,28.7L27.5,28.7z M14.4,25.7c0-0.3,0.7-0.7,1-0.8c1.1-0.6,3.2-0.8,4.6-0.8c1.1,0,2.3,0.1,3.2,0.3
	c0.5,0.1,0.9,0.3,1.3,0.4c0.3,0.1,1,0.5,1,0.8c0,0.3-0.7,0.7-1,0.8c-0.4,0.2-0.9,0.3-1.4,0.4c-2.3,0.5-4.2,0.5-6.5,0
	c-0.6-0.1-1.4-0.4-1.9-0.8C14.8,26,14.4,25.8,14.4,25.7L14.4,25.7z M25.7,23.6c0.2,0,1.3,0.3,2.3,0.4c0.8,0.1,1.1,0.1,2,0.1
	c1.4,0,3.4-0.3,4.7-0.9l0.5-0.2l0,1c0,0.4-0.6,0.7-0.9,0.8c-1.4,0.7-4.2,1-5.9,0.8l-1.2-0.1c0-0.5-0.4-1.1-0.8-1.4
	c-0.3-0.2-0.3-0.2-0.6-0.4C25.8,23.6,25.8,23.6,25.7,23.6L25.7,23.6z M25.7,23.6L25.7,23.6z M24,19.7c1.7,0.9,3.8,1.1,5.7,1.1
	c1.6,0,3.4-0.3,4.9-0.8c0.2-0.1,0.5-0.2,0.6-0.3c0,0.3,0,0.7,0,1c0,0.1,0,0.2-0.2,0.3c-0.5,0.4-1.2,0.7-1.8,0.8
	c-1,0.3-2.6,0.5-3.7,0.5c-1.6,0-3.8-0.2-5.1-1.1C24.3,21.2,24,21,24,20.8C24,20.5,24,20.1,24,19.7L24,19.7z M24,17.6
	c0-0.3,0.7-0.7,0.9-0.8c1.1-0.5,3-0.8,4.3-0.8c0.9,0,1.4,0,2.4,0.1c0.9,0.1,1.9,0.3,2.7,0.7c0.2,0.1,0.9,0.5,0.9,0.8
	c0,0.3-0.7,0.6-0.9,0.8C33,19,31,19.2,29.4,19.2c-1.3,0-2.9-0.2-4.1-0.7c-0.1-0.1-0.2-0.1-0.3-0.1C24.8,18.3,24,17.9,24,17.6
	L24,17.6z M22.4,17.6v5l-0.9-0.1c-2.3-0.1-4.1-0.1-6.3,0.7c-0.8,0.3-1.7,0.8-2.2,1.6c-0.1,0.2-0.3,0.6-0.3,1v1.6H4V11.6
	c0-0.1,0.2-0.2,0.3-0.2c0.1,0,0.1-0.1,0.2-0.1L5,10.9c0.1,0,0.1-0.1,0.2-0.1l9.3-5.1c0.1-0.1,0.6-0.4,0.7-0.4l10.9,6
	c0.1,0,0.3,0.1,0.3,0.2v3.1c0,0.1-0.1,0.1-0.3,0.1c-0.7,0.2-1,0.3-1.6,0.6c-0.5,0.2-1.2,0.6-1.5,1C22.7,16.6,22.4,17.1,22.4,17.6
	L22.4,17.6z M2.6,10.4h-1V9.1c0.1,0,0.3-0.1,0.4-0.2c0.3-0.2,0.7-0.4,1.1-0.6c3.8-2.1,7.6-4.2,11.5-6.2c0.9-0.5,0.4-0.4,1.5,0.1
	c2.5,1.4,12.7,6.8,12.7,7v1.2h-1c-0.1,0-0.1-0.1-0.2-0.1L15.9,3.9c-0.7-0.4-0.8-0.3-1.5,0.1L2.6,10.4z M0,8.7v2.5
	c0,0.3,0.1,0.5,0.3,0.6C0.4,11.9,0.6,12,0.9,12h1.5v15.9c0,0.6,0.4,1,1,1h9.4v6.3c0,2.5,4.7,3.3,6.7,3.2l0.7,0c0.4,0,0.9,0,1.3-0.1
	c0.1,0,0.2,0,0.3,0l1-0.1c1-0.1,1.9-0.4,2.7-0.8c0.6-0.3,1.2-0.7,1.5-1.3c0.1-0.1,0.2-0.3,0.2-0.5c0.1-0.5,0-1.6,0-2.1
	c0.1,0.1,1,0.1,1.1,0.1c0.1,0,0.2,0,0.3,0l1,0c1.2,0,2.4-0.1,3.5-0.4c0.7-0.1,1.3-0.3,1.9-0.6l0.6-0.4c0.5-0.3,1.1-1,1.1-1.8V17.6
	c0-0.7-0.4-1.2-0.9-1.6c-1.9-1.6-5.1-1.6-7.6-1.5c-0.1,0-0.2,0-0.3,0V12h1.6c0.4,0,0.8-0.3,0.8-0.8V8.6c0-0.2-0.1-0.4-0.2-0.5
	C30.2,8,30.1,8,30,7.9c-0.1,0-0.1-0.1-0.2-0.1l-14-7.6c-0.5-0.2-0.6-0.3-1.1,0C10.3,2.6,5.8,5,1.4,7.4c-0.1,0-0.2,0.1-0.3,0.1
	C0.9,7.7,0.4,7.9,0.2,8.1C0.1,8.3,0,8.4,0,8.7L0,8.7z"/>
<path fill="#585B71" d="M17.4,18.9c0,0.6,0.1,1.1,0.3,1.4c0.1,0.3,0.4,0.4,0.8,0.4c0.4,0,0.6-0.1,0.8-0.4c0.1-0.3,0.2-0.8,0.2-1.4
	c0-0.7-0.1-1.1-0.2-1.4c-0.2-0.3-0.4-0.4-0.8-0.4c-0.3,0-0.6,0.1-0.8,0.4C17.5,17.8,17.4,18.3,17.4,18.9L17.4,18.9z M15.4,18.9
	c0-0.9,0.3-1.7,0.8-2.2c0.6-0.6,1.3-0.8,2.2-0.8c0.9,0,1.6,0.3,2.2,0.8c0.6,0.5,0.8,1.3,0.8,2.2c0,0.9-0.3,1.6-0.8,2.2
	c-0.5,0.6-1.3,0.8-2.2,0.8c-0.9,0-1.6-0.3-2.2-0.8C15.7,20.5,15.4,19.8,15.4,18.9L15.4,18.9z M9.3,14.8c0,0.6,0.1,1.1,0.2,1.4
	c0.2,0.3,0.4,0.4,0.8,0.4c0.4,0,0.6-0.1,0.8-0.4c0.2-0.3,0.2-0.8,0.2-1.4c0-0.7-0.1-1.1-0.2-1.4c-0.2-0.3-0.4-0.4-0.8-0.4
	c-0.3,0-0.6,0.1-0.8,0.4C9.3,13.7,9.3,14.1,9.3,14.8L9.3,14.8z M7.3,14.8c0-0.9,0.3-1.6,0.8-2.2c0.5-0.6,1.3-0.8,2.2-0.8
	c0.9,0,1.6,0.3,2.2,0.8c0.5,0.5,0.8,1.3,0.8,2.2c0,0.9-0.3,1.7-0.8,2.2c-0.6,0.6-1.3,0.8-2.2,0.8c-0.9,0-1.6-0.3-2.2-0.8
	C7.5,16.4,7.3,15.7,7.3,14.8L7.3,14.8z M10.6,21.9l6.1-10.2h1.5l-6,10.2H10.6z"/>
</svg>
