<?xml version="1.0" encoding="utf-8"?>
<!-- Generator: Adobe Illustrator 12.0.0, SVG Export Plug-In  -->
<!DOCTYPE svg PUBLIC "-//W3C//DTD SVG 1.1//EN" "http://www.w3.org/Graphics/SVG/1.1/DTD/svg11.dtd" [
	<!ENTITY ns_flows "http://ns.adobe.com/Flows/1.0/">
	<!ENTITY ns_svg "http://www.w3.org/2000/svg">
	<!ENTITY ns_xlink "http://www.w3.org/1999/xlink">
]>
<svg  version="1.1" xmlns="&ns_svg;" xmlns:xlink="&ns_xlink;" xmlns:a="http://ns.adobe.com/AdobeSVGViewerExtensions/3.0/"
	 width="32" height="39" viewBox="-0.1 -0.4 32 39" enable-background="new -0.1 -0.4 32 39" xml:space="preserve">
<defs>
</defs>
<path fill-rule="evenodd" clip-rule="evenodd" fill="#FFFFFF" d="M19.1,28.6h4.6v0.9h-0.1h-4.3l-0.1,0V28.6z M7.6,25.2h16v0.9h-16
	V25.2z M7.6,22.4h16v0.9h-16V22.4z M7.6,19.5h16v0.9h-16V19.5z M7.6,16.7h16v0.9l-16,0V16.7z M7.6,13.9h16v0.9h-16V13.9z M12.3,6.7
	h0.9c0,0.4-0.1,1.3,0.1,1.5c0.2,0.4,0.8,0.3,1.2,0.1V6.7h0.9v4h-0.9V9c-0.3,0.1-0.5,0.2-0.9,0.2c-0.9,0-1.3-0.5-1.3-1.3V6.7z
	 M19.8,6.7h3.1v0.7h-1.1v3.2h-0.9V7.4h-1.1V7.3V6.7z M16.5,6.7H19v0.7h-1.6v0.8h1.5l0,0.7l-1.5,0v0.9H19v0.7h-2.5V6.7z M11.4,10.6
	c-0.7,0.3-1.6,0.2-2.2-0.1C7.8,9.6,8,6.8,10.3,6.6c0.3,0,1,0,1.2,0.2l-0.2,0.7c-0.3-0.1-0.4-0.1-0.7-0.1c-0.7,0-1.3,0.4-1.3,1.3
	c0,0.6,0.2,1,0.6,1.1c0.5,0.3,0.9,0.1,1.4,0.1C11.3,10,11.4,10.4,11.4,10.6L11.4,10.6z M17,5.7c0.5-0.1,0.7,0.7,0.2,0.8
	C16.7,6.6,16.5,5.8,17,5.7L17,5.7z M18.2,5.7c0.5-0.1,0.7,0.7,0.2,0.8C17.9,6.6,17.7,5.8,18.2,5.7L18.2,5.7z M4.2,34.8h22.6V3.1H4.2
	V34.8z"/>
<path fill-rule="evenodd" clip-rule="evenodd" fill="#585B71" d="M4.2,3.1h22.6v31.7H4.2V3.1z M3.3,26.9v6.7l-0.7-0.1L3.3,26.9z
	 M2.5,25.7l-0.7,6.5l-0.7-0.1L2.5,25.7z M28.5,12.3c0-0.3,0.6-5.9,0.7-6.6l0.7,0.1c0,0.2-0.6,2.8-0.7,3.2L28.5,12.3z M27.7,4.4
	l0.7,0.1l-0.7,6.7V4.4z M6.9,1.2L5.2,1L5.1,2.2H3.3c0,1.4,0,2.8,0,4.2V17c0,0.4,0,0.6-0.1,1L0,32.7l1.7,0.4l-0.1,1.2l1.7,0.2
	c0,0.2,0,1,0,1.2c0.5,0.1,5.1,0,5.7,0h4.3c0.5,0,0.7,0.1,1.2,0.2l9.3,2l0.3-1.2l1.7,0.2c0.1-0.2,0.1-0.9,0.2-1.2l1.8,0V20.4
	c0-0.2,0.3-1.6,0.4-1.9c0.1-0.6,0.3-1.3,0.4-1.9l2.3-10.5c0-0.2,0.2-0.8,0.2-1l-1.7-0.4l0.1-1.2l-1.7-0.2V2.2h-9.9
	c-0.5,0-0.8-0.1-1.2-0.2c-1.6-0.3-3.1-0.7-4.7-1c-1.5-0.3-3.1-0.7-4.7-1C7.1,0.1,7,1,6.9,1.2L6.9,1.2z"/>
<rect x="7.6" y="22.4" fill-rule="evenodd" clip-rule="evenodd" fill="#585B71" width="16" height="0.9"/>
<rect x="7.6" y="25.2" fill-rule="evenodd" clip-rule="evenodd" fill="#585B71" width="16" height="0.9"/>
<rect x="7.6" y="19.5" fill-rule="evenodd" clip-rule="evenodd" fill="#585B71" width="16" height="0.9"/>
<rect x="7.6" y="13.9" fill-rule="evenodd" clip-rule="evenodd" fill="#585B71" width="16" height="0.9"/>
<polygon fill-rule="evenodd" clip-rule="evenodd" fill="#585B71" points="7.6,17.6 23.6,17.6 23.6,16.7 7.6,16.7 "/>
<polygon fill-rule="evenodd" clip-rule="evenodd" fill="#585B71" points="16.5,10.7 19,10.7 19,9.9 17.4,9.9 17.4,9 18.9,9 
	18.9,8.3 17.4,8.3 17.4,7.4 19,7.4 19,6.7 16.5,6.7 "/>
<path fill-rule="evenodd" clip-rule="evenodd" fill="#585B71" d="M12.3,7.9c0,0.9,0.4,1.3,1.3,1.3c0.4,0,0.5-0.1,0.9-0.2v1.6h0.9v-4
	h-0.9v1.7c-0.4,0.2-0.9,0.2-1.2-0.1c-0.1-0.3-0.1-1.2-0.1-1.5h-0.9V7.9z"/>
<path fill-rule="evenodd" clip-rule="evenodd" fill="#585B71" d="M11.4,10.6c0-0.1-0.1-0.5-0.1-0.7c-0.5,0.1-0.9,0.3-1.4-0.1
	C9.5,9.6,9.3,9.2,9.3,8.7c0-0.9,0.6-1.3,1.3-1.3c0.3,0,0.5,0.1,0.7,0.1l0.2-0.7c-0.2-0.2-0.9-0.2-1.2-0.2c-2.3,0.1-2.5,3-1.1,3.8
	C9.8,10.8,10.7,10.8,11.4,10.6L11.4,10.6z"/>
<polygon fill-rule="evenodd" clip-rule="evenodd" fill="#585B71" points="19.8,7.3 19.8,7.4 20.8,7.4 20.8,10.7 21.7,10.7 21.7,7.4 
	22.8,7.4 22.8,6.7 19.8,6.7 "/>
<polygon fill-rule="evenodd" clip-rule="evenodd" fill="#585B71" points="19.1,29.5 19.2,29.5 23.5,29.5 23.6,29.5 23.6,28.6 
	19.1,28.6 "/>
<polygon fill-rule="evenodd" clip-rule="evenodd" fill="#FFFFFF" points="27.7,11.2 28.4,4.5 27.7,4.4 "/>
<polygon fill-rule="evenodd" clip-rule="evenodd" fill="#FFFFFF" points="2.6,33.5 3.3,33.6 3.3,26.9 "/>
<path fill-rule="evenodd" clip-rule="evenodd" fill="#FFFFFF" d="M28.5,12.3l0.7-3.2c0.1-0.5,0.7-3,0.7-3.2l-0.7-0.1
	C29.2,6.5,28.5,12,28.5,12.3L28.5,12.3z"/>
<polygon fill-rule="evenodd" clip-rule="evenodd" fill="#FFFFFF" points="1.1,32.1 1.8,32.2 2.5,25.7 "/>
<path fill-rule="evenodd" clip-rule="evenodd" fill="#585B71" d="M18.2,5.7c-0.5,0.1-0.3,0.9,0.2,0.8C18.9,6.3,18.8,5.5,18.2,5.7
	L18.2,5.7z"/>
<path fill-rule="evenodd" clip-rule="evenodd" fill="#585B71" d="M17,5.7c-0.5,0.1-0.3,0.9,0.2,0.8C17.7,6.3,17.6,5.5,17,5.7L17,5.7
	z"/>
</svg>
