<?xml version="1.0" encoding="utf-8"?>
<!-- Generator: Adobe Illustrator 12.0.0, SVG Export Plug-In . SVG Version: 6.00 Build 51448)  -->
<!DOCTYPE svg PUBLIC "-//W3C//DTD SVG 1.1//EN" "http://www.w3.org/Graphics/SVG/1.1/DTD/svg11.dtd" [
	<!ENTITY ns_svg "http://www.w3.org/2000/svg">
	<!ENTITY ns_xlink "http://www.w3.org/1999/xlink">
]>
<svg  version="1.1" id="Layer_1" xmlns="&ns_svg;" xmlns:xlink="&ns_xlink;" width="36.945" height="38.561"
	 viewBox="0 0 36.945 38.561" overflow="visible" enable-background="new 0 0 36.945 38.561" xml:space="preserve">
<path fill-rule="evenodd" clip-rule="evenodd" fill="#FFFFFF" stroke="#585B71" stroke-linecap="round" stroke-linejoin="round" stroke-miterlimit="10" d="
	M35.984,20.968c0.085-0.457,0.085-2.114,0.028-2.628c-0.286-2.229-1.228-3.686-3.941-3.915c-1.542-0.143-3.684-0.028-5.283-0.028
	H5.799c-0.457,0-0.886,0.057-1.143-0.229c-0.314-0.314-0.2-0.714,0.086-0.915c0.457-0.314,1.713-0.057,2.37-0.2v-2.543
	c-0.457-0.114-1.885-0.057-2.427-0.057c-1.828,0.057-3.656,1.085-4.027,3.085c-0.229,1.286-0.143,3.171-0.143,4.6v14.343
	c0,2.886,0.371,5.114,3.941,5.515c0.885,0.114,7.967,0.028,9.538,0.028c1.913,0,17.448,0.143,18.934-0.143
	c1.513-0.286,2.056-1.172,2.627-2.115c0.571-0.914,0.6-3.485,0.4-4.257c-2.513-0.343-6.311,0.4-8.453-0.314
	c-1.999-0.657-3.655-2.657-3.626-5c0.028-2.514,1.713-4.314,3.684-5C28.958,20.71,34.013,21.025,35.984,20.968L35.984,20.968z"/>
<path fill-rule="evenodd" clip-rule="evenodd" fill="#585B71" d="M14.766,13.082h1.057c0.286-0.343,2.798-6.514,3.113-7.2
	c1.542,0.143,4.284,1.343,6.083-2.314l6.083,2.257c-0.914,1.628-0.8,3.457,1.999,5.143l-0.942,2.114
	c0.457,0.057-0.114,0.029,0.371,0.029c1.371,0,1.057,0.4,2.342-2.572c0.685-1.657,1.856-3.257,0.514-4.829
	c-0.6-0.657-1.142-0.828-2.084-1.2c-2.713-1.057-6.482-2.686-9.252-3.886c-0.885-0.372-1.514-0.771-2.57-0.571
	c-1.771,0.343-2.228,2.114-2.856,3.714c-0.6,1.486-1.256,3.058-1.97,4.629C16.365,9.054,14.737,12.71,14.766,13.082L14.766,13.082z"
	/>
<path fill-rule="evenodd" clip-rule="evenodd" fill="#585B71" d="M30.415,24.882c1.685-0.372,2.484,2.257,0.514,2.714
	c-0.828,0.229-1.628-0.371-1.771-1.057c-0.086-0.457,0.057-0.914,0.257-1.171C29.729,24.997,29.844,24.997,30.415,24.882
	L30.415,24.882z M25.731,26.71c0.229,1.257,1.057,2.143,1.942,2.657c1.057,0.6,2.742,0.486,4.198,0.486
	c0.885,0,3.884,0.171,4.483-0.257c0.828-0.628,0.542-2.571,0.542-3.886c0-1.257,0.372-3.028-1.457-3.085
	c-1.513-0.029-3.084,0.028-4.626,0c-1.628,0-2.77,0.028-3.77,0.886C26.332,24.111,25.475,25.282,25.731,26.71L25.731,26.71z"/>
<path fill-rule="evenodd" clip-rule="evenodd" fill="#585B71" d="M11.653,13.082l1.228,0.029l1.256-2.857
	c0.429-1.057,3.57-8.343,3.598-8.714c-1-0.514-2.37-0.085-3.141,0.943C14.023,3.225,11.625,12.825,11.653,13.082L11.653,13.082z"/>
<path fill-rule="evenodd" clip-rule="evenodd" fill="#585B71" d="M19.849,13.082l9.082,0.029c0.114-1.257-2.199-3.629-4.712-3.629
	c-1.371,0-2.228,0.2-3.056,0.943C20.477,10.997,19.82,11.882,19.849,13.082L19.849,13.082z"/>
<path fill-rule="evenodd" clip-rule="evenodd" fill="#585B71" d="M8.626,13.111c0.342,0,0.828,0.028,1.057-0.086
	c0.228-0.143,1.885-6.657,2.142-7.743c0.2-0.886,0.485-1.714,0.771-2.629c-1.256,0.029-1.999,0.486-2.484,1.2
	c-0.628,0.886-1.114,6.086-1.314,7.628C8.74,11.968,8.626,12.539,8.626,13.111L8.626,13.111z"/>
</svg>
