<?xml version="1.0" encoding="utf-8"?>
<!-- Generator: Adobe Illustrator 22.0.1, SVG Export Plug-In . SVG Version: 6.00 Build 0)  -->
<svg version="1.1" id="Слой_1" xmlns="http://www.w3.org/2000/svg" xmlns:xlink="http://www.w3.org/1999/xlink" x="0px" y="0px"
	 viewBox="0 0 114 114" style="enable-background:new 0 0 114 114;" xml:space="preserve">
<style type="text/css">
	.st0{fill:#EF7F1A;}
	.st1{fill:#FFFFFF;}
</style>
<path class="st0" d="M100.8,114.2H12.9c-7.2,0-13-5.9-13-13V13.2c0-7.2,5.9-13,13-13h87.9c7.2,0,13,5.9,13,13v87.9
	C113.8,108.3,108,114.2,100.8,114.2z"/>
<g>
	<path class="st1" d="M69.7,90.9c-0.7,0.1-1,0.6-1,1.5s0.3,1.3,1,1.3s1.1-0.4,1.1-1.3C70.7,91.4,70.3,90.9,69.7,90.9z"/>
	<path class="st1" d="M78.4,87.3L78.4,87.3c-0.7,0-1.1,0.5-1.1,1.6c0,1,0.4,1.4,1.1,1.4l0,0c0.7,0,1.1-0.5,1.1-1.4
		C79.3,87.8,79,87.3,78.4,87.3z"/>
	<path class="st1" d="M30.4,92.8c0.2-0.3,0.6-0.5,1.3-0.8l1.4-0.7h-0.6h-0.7c-1.1,0-1.9,0.2-2.5,0.7c-0.6,0.4-1.1,1.1-1.6,2.1
		l-1.3-1.3l-1.5,2.7l2.8,1.4c-0.7-0.3-1.6,0.3-2.7,1.8l-1.2,2.1c-0.1,0.1-0.1,0.3-0.2,0.6c-0.1,0.3-0.2,0.6-0.3,0.9h5v1h4v-1.2
		c-0.1-0.5-0.3-2.6-0.3-3.7l0,0l-0.2-2.9l-0.6-0.7l-0.8-0.7l-0.1-0.3v-0.4L30.4,92.8z"/>
	<path class="st1" d="M89.2,67.6l-0.6-1.1L88,65.3l-0.3-1.6c-0.9,0-1.8,0-2.8-0.2l-0.6-0.1c-0.9-0.1-1.8-0.2-2.8-0.3l-2.2-0.5
		l-1.2-0.3l-2.5-0.5l-0.5-2.5c0-1-0.2-2.1-0.6-3.2c-0.2-0.8-0.6-1.6-1.3-2.3l-0.1-0.1c-0.3-0.3-1.2-0.5-1.2-0.5s-0.1,0-0.4,0
		s-0.5,0.1-0.8,0.2l2.6-2.9l0,0l0,0l-1.4-7l0,0l0,0l0,0l-1.6-6.8l-0.7-1.3c-0.3-0.4-0.7-0.6-1.2-0.6c-0.1,0-0.2,0-0.3,0
		c-0.3,0.1-0.8,0.2-1.3,0.5l0.7-0.6c0.1-0.1,0.3-0.3,0.6-0.7c0,0,0-0.1,0.1-0.1c0-0.1,0.1-0.1,0.2-0.2v-0.5c0-0.2-0.1-0.4-0.2-0.7
		c-0.1-0.5-0.4-1.1-0.7-1.8l-3.2-5.8l0,0l0,0l0,0l-2-3.7l0,0l-0.7-1.3c-0.6-1-1.1-1.5-1.4-1.6l-2.1-1.1l0,0L57,16.6
		c-0.4-0.4-0.7-0.9-0.7-1.5v-1l0.7-1.5c0.1-0.1-0.1,0.2,0,0s0.3-0.7,0.5-1v-0.1c0,0,0,0,0-0.1l0,0H57c-1,0-1.8,0.1-2.5,0.2
		c-0.4,0.1-0.7,0.2-1,0.3c-0.9,0.4-1.5,0.9-1.9,1.6c-0.4,0.7-0.7,1.5-0.9,2.4c-0.1,0.9-0.2,1.7-0.2,2.6l-0.2,4l-1.1,3.2l-1.4,2.5
		l-0.3,0.6l-1.5,3.3c-0.4,1-0.6,2.1-0.6,3.1c0,0.1,0,0.1,0.1,0.2c0,0.1,0.2,0.3,0.4,0.7l0.8,0.4c-0.4,1.2-0.8,2.5-1.2,3.8
		c-0.5,1.3-3.8,10.2-4.3,11.5l0,0l0,0l-5.5,15.4l-0.4,0.7L33,73l0,0l0,0l-2.2,5.4l-0.3,1.4l0.2,1.6c0.1,0.5,0.5,0.9,1.2,1.1
		c-1.1,0.6-1.8,1.2-2.1,1.9c-0.3,0.6-0.4,1.6-0.4,3v1v1c2.2-0.4,3.7-1.3,4.5-2.6c0.8-1.3,1.2-2.7,1.2-4.2l0.3-3
		c0.1-0.8,0.3-1.6,0.7-2.4c0.4-0.8,1.1-1.4,2-1.8c-0.1,0.1-0.1,0.5-0.1,1.1c0,0.7,0.1,1.2,0.4,1.4c0.7,0.3,1.4,0.4,1.9,0.4h1.5
		l2.8,0.4c0.9-0.1,1.7-0.5,2.8-1.3V79l0.9-0.1l6.8-0.4l1.8-0.1c0.5-0.1,0.9-0.2,1.3-0.2c1.4-0.3,3.7-0.4,4.7-0.5c0.3,0-0.3,0,0,0
		l0,0l0,0c0.6,0,2.2,0,2.8,0c0.4,0,0.8,0,1.6,0v3.7H69h1.2L69,82.8l-1.2,1.4l1.2,1.3l0,0l0,0c-0.9,0.7-1.3,1.6-1.3,2.8H69h2.4v1.3
		l1.1-0.8c0.1-0.1,0.6-0.3,0.9-0.4c0.2-0.1-0.2,0.1,0,0l0.3-0.1c0.3,0,0.7,0.2,1.2,0.5l1.2,0.8l0.8-2l0.6-2.4l0,0l0.9-2.4v-0.6
		c0-1-0.2-1.7-0.6-2.2c-0.2-0.6-0.6-1-1.1-1.2l-0.9-0.3l-0.8-0.3l-1.9-1c0.1-0.3,1.1-0.9,2.3-1.3c0.3-0.1-0.2,0.1,0,0
		c0.8-0.3,4.3-1.4,4.8-1.5c0.2-0.1-0.3,0.1,0,0c0.4-0.1-0.5,0.1,0,0c0.2,0-0.2,0.1,0,0l0,0l5.4-1.3c1.8-0.3,2.9-0.4,3.3-0.2
		l-0.8-0.8l-0.7-1.1V71v-0.4l-0.5-0.3l0.5-0.7c0.1-0.1,0.3-0.3,0.7-0.6l1.3,1.3v-0.5l0.2-0.8L89.2,67.6z M65.8,62l0.5,0.7l0.7,0.6
		c-0.4,0.3-0.8,0.7-1.2,0.9l0,0c-0.4,0.2-1.1,0.7-1.5,0.8c-0.2,0.2,0.2-0.1,0,0c-0.2,0.1-0.8,0.5-1,0.5l0,0
		c-0.3,0.1-0.9,0.4-1.4,0.6l0,0l-3.5,1.1h-0.1l-2.5,0.3L55,67.3H55l-1.1-0.5l-1.2-0.4L52,66.1l-2,0.3l-1.7,0.4l-1.9,0.5l-3.6,0.9
		l-1.9,1.1H40h-0.7l0.1-1.2l0.1-0.6c0.5-1,1-2,1.4-2.8c0.4-0.9,0.7-1.6,1-2.3c0.1-0.3,0.4-0.9,0.8-1.8c0.4-0.9,0.9-2.1,1.4-3.5
		c0.7-1.5,1.2-2.8,1.7-3.9c0.4-0.9,0.7-1.8,1-2.4c0.2-0.7,0.5-1.3,0.7-2c0.3-0.9,0.6-1.7,0.9-2.5l0.1-0.3c0.9-2.2,1.5-4,1.9-5.4
		c0.2-0.7,0.5-1.5,0.8-2.5s0.5-2,0.8-3.2c0.7-2.5,1.2-4.6,1.6-6.4c0.4-1.8,1-5.1,1-5.1h0.6h0.6l0.2,1.3l0.3,2.1l0.7,3.4
		c0.1,0.3-0.1-0.6,0,0l0,0l0.8,3.4c0.2,0.3,0.3,0.6,0.5,0.8c0.2,0.3,0.4,0.6,0.7,0.8c0.6,0.1,1.2-0.1,1.8-0.8L60,35.7l-0.5,1.4
		l0.2,1.6l0.3,2.5l0.4,2.6l0.4,1.5l1.1-0.2H62h1.2h0.1l0.6,0.2l0.9,0.3c0.4,0.3,0.7,0.7,0.9,1.2L64,48.9l-0.6,0.7L62.2,51l1.2,0.5
		h0.1l0.6,0.4l0.6,0.4c0.1,0.3,0.1,0.5-0.1,0.7c-0.1,0-0.3,0.2-0.5,0.5l1.6-0.1l0.2-0.1l0.9-0.4l0.8-1.2l0.8-2v-0.1l0.1,1v0.8
		c0,0-0.1,1.3-0.2,1.8c-0.1,0.3-0.1,0.5-0.2,0.7l-1,2.3l-0.9,2.4c-0.2,0.4-0.3,0.9-0.3,1.5c0,0.3,0,0.7-0.4,1v0.6L65.8,62z"/>
	<path class="st1" d="M62.3,49.1"/>
	<path class="st1" d="M62.3,46.3L62.3,46.3"/>
</g>
</svg>
