<?xml version="1.0" encoding="utf-8"?>
<!-- Generator: Adobe Illustrator 22.0.1, SVG Export Plug-In . SVG Version: 6.00 Build 0)  -->
<svg version="1.1" id="Слой_1" xmlns="http://www.w3.org/2000/svg" xmlns:xlink="http://www.w3.org/1999/xlink" x="0px" y="0px"
	 viewBox="0 0 57 57" style="enable-background:new 0 0 57 57;" xml:space="preserve">
<style type="text/css">
	.st0{fill:#EF7F1A;}
	.st1{fill:#FFFFFF;}
</style>
<path class="st0" d="M51.3,58.2h-44c-3.6,0-6.5-2.9-6.5-6.5v-44c0-3.6,2.9-6.5,6.5-6.5h44c3.6,0,6.5,2.9,6.5,6.5v44
	C57.8,55.2,54.9,58.2,51.3,58.2z"/>
<g>
	<path class="st1" d="M35.4,47.1c-0.4,0.1-0.5,0.3-0.5,0.8s0.2,0.7,0.5,0.7c0.4,0,0.6-0.2,0.6-0.7C35.9,47.4,35.7,47.1,35.4,47.1z"
		/>
	<path class="st1" d="M40.2,45.1L40.2,45.1c-0.4,0-0.6,0.3-0.6,0.9c0,0.5,0.2,0.8,0.6,0.8l0,0c0.4,0,0.6-0.3,0.6-0.8
		C40.7,45.4,40.5,45.1,40.2,45.1z"/>
	<path class="st1" d="M14.1,48.1c0.1-0.2,0.3-0.3,0.7-0.4l0.8-0.5h-0.3h-0.4c-0.6,0.2-1,0.3-1.4,0.5c-0.3,0.2-0.6,0.6-0.9,1.1
		L12,48.1l-0.8,1.5l1.5,0.8c-0.4-0.2-0.9,0.2-1.5,1l-0.7,1.1c-0.1,0.1-0.1,0.2-0.1,0.3s-0.2,0.9-0.2,0.3H13l0,0h2.8v0
		c-0.5,0-0.9-1.4-0.9-2l0,0l-0.1-1.6l-0.3-0.4l-0.4-0.4l0.7-0.2v-0.2L14.1,48.1z"/>
	<path class="st1" d="M46,34.4l-0.3-0.6l-0.3-0.6l-0.2-0.9c-0.5,0-1,0-1.5-0.1l-0.3-0.1c-0.5-0.1-1-0.1-1.5-0.2l-1.2-0.3L40,31.6
		l-1.4-0.3l-0.3-1.4c0-0.5-0.1-1.1-0.3-1.7c-0.1-0.4-0.3-0.9-0.7-1.2l-0.1-0.1c-0.2-0.2-0.7-0.8-0.7-0.8s-1.1,0-1.3,0
		s-0.2,0.1-0.4,0.1l1.3-1.6l0,0l0,0l-0.7-3.8l0,0l0,0l0,0l-0.8-3.7l-0.3-0.7c-0.1-0.2-0.3-0.3-0.6-0.3c0,0-0.1,0-0.1,0
		c-0.1,0.1-0.4,0.1-0.6,0.3l0.3-0.3c0-0.1,0.1-0.2,0.3-0.4c0,0,0-0.1,0-0.1c0-0.1,0-0.1,0.1-0.1v-0.3c0-0.1,0-0.2-0.1-0.4
		c0-0.3-0.2-0.6-0.3-1l-1.6-3.2l0,0l0,0l0,0l-1-2l0,0l-0.3-0.7c-0.3-0.5-0.5-0.8-0.7-0.9l-1-0.6l0,0l-0.5-0.3
		C28,6,27.8,5.8,27.8,5.4v0l0.7-0.8c0.1-0.1-0.1,0.1,0,0c0.1-0.1,0.2-0.4,0.3-0.5V4v0.2h0.6h-0.3c-0.6,0-1,0.1-1.4,0.1
		c-0.2,0.1-0.4,0.1-0.6,0.2c-0.5,0.2-0.8,0.5-1.1,0.9c-0.2,0.4-0.4,0.8-0.5,1.3c-0.1,0.5-0.1,0.9-0.1,1.4l-0.1,2.2l-0.6,1.7L24,13.2
		l-0.2,0.3L23,15.3c-0.2,0.5-0.3,1.1-0.3,1.7c0,0.1,0,0.1,0.1,0.1c0,0.1,0.1,0.2,0.2,0.4l0.4,0.2c-0.2,0.6-0.4,1.3-0.7,2
		c-0.3,0.7-2.1,5.5-2.4,6.2l0,0l0,0l-3.1,8.3l-0.2,0.4l-1.2,2.7l0,0l0,0l-1.2,2.9L14.5,41l0.1,0.9c0.1,0.3,0.3,0.5,0.7,0.6
		c-0.6,0.3-1,0.6-1.2,1c-0.2,0.3-0.2,0.9-0.2,1.6v0.5v0.5c1.2-0.2,2.1-0.7,2.5-1.4c0.4-0.7,0.7-1.5,0.7-2.3l0.2-1.6
		c0.1-0.4,0.2-0.9,0.4-1.3c0.2-0.4,0.6-0.8,1.1-1c-0.1,0.1-0.1,0.3-0.1,0.6c0,0.4,0.1,0.6,0.2,0.8c0.4,0.2,0.8,0.2,1.1,0.2h0.8
		l1.6,0.2c0.5-0.1,0.9-0.3,1.6-0.7v0.9l0-0.1l3.7-0.2l1-0.1c0.3-0.1,0.5-0.1,0.7-0.1c0.8-0.2,2-0.2,2.6-1l0,0l0,0l0,0h1.5h1.6v2
		h-0.2h0.7l-0.7,1.5l-0.7,0.8l0.7,0.7l0,0l0,0c-0.5,0.4-0.7,0.9-0.7,2h0.7h1.2v0.4l0.7-0.5c0.1-0.1,0.3-0.2,0.5-0.2
		c0.1-0.1-0.1,0.1,0,0l0.2-0.1c0.2,0,0.4,0.1,0.7,0.3l0.7,0.5l0.5-1.1l0.3-1.4l0,0l0.4-1.4v0c0,0,0.1-1-0.1-1.3
		c-0.1-0.4-0.4-0.6-0.6-0.7l-0.5-0.2l-0.5-0.2l-1.1-0.6c0.1-0.2,0.6-0.5,1.4-0.8c0.2-0.1-0.1,0.1,0,0c0.5-0.2,2.5-0.8,2.8-0.9
		c0.1-0.1-0.2,0.1,0,0c0.2-0.1-0.3,0.1,0,0c0.1,0-0.1,0.1,0,0l0,0l3.2-0.8c1.1-0.2,1.7-0.2,1.9-0.1l-0.5-0.5l0.1-0.6v0.3v-0.2
		l-1.1-0.2l0.3-0.4c0.1-0.1,0.2-0.2,0.4-0.3l1.5,0.7v-0.3l-0.6-0.4L46,34.4z M33.3,31.4l0.3,0.4l0.4,0.3c-0.2,0.2-0.4,0.4-0.7,0.5
		l0,0c-0.2,0.1-0.6,0.4-0.8,0.4c-0.1,0.1,0.1-0.1,0,0c-0.1,0.1-0.4,0.3-0.5,0.3l0,0c-0.2,0.1-0.5,0.2-0.8,0.3l0,0l-1.9,0.5h-0.1
		l-1.4,0.2l-0.4-0.2h-0.1L26.8,34l-0.7-0.2l-0.4-0.2l-1.1,0.2L23.8,34l-1,0.3l-2,0.5l-1,0.4h-0.3h-0.4l0.1-0.6l0.1-0.3
		c0.3-0.5,0.5-1,0.7-1.5c0.2-0.5,0.4-0.8,0.5-1.2c0.1-0.2,0.2-0.5,0.4-0.9c0.2-0.5,0.5-1.1,0.7-1.8c0.4-0.8,0.6-1.5,0.9-2
		c0.2-0.5,0.4-0.9,0.5-1.3c0.1-0.4,0.3-0.7,0.4-1c0.2-0.5,0.3-0.9,0.5-1.3l0.1-0.2c0.5-1.2,0.8-2.1,1-2.8c0.1-0.4,0.3-0.8,0.4-1.3
		c0.2-0.5,0.3-1,0.4-1.7c0.4-1.3,0.6-2.4,0.8-3.3c0.2-0.9,0.5-2.7,0.5-2.7h0.6H28l0.1,0.7l0.2,1.1l0.4,1.7c0.1,0.2-0.1-0.3,0,0l0,0
		l0.4,1.7c0.1,0.2,0.2,0.3,0.3,0.4c0.1,0.2,0.2,0.3,0.4,0.4c0.3,0.1,0.6-0.1,0.9-0.4l-0.4,0.7l-0.3,0.7l0.1,0.8l0.2,1.3l0.2,1.3
		l0.2,0.8l0.6-0.1h0.2h0.7H32l0.3,0.2l0.5,0.2c0.2,0.2,0.4,0.4,0.5,0.7l-1,1.1L32,24.7l-0.7,0.8l0.7-0.3H32l0.3,0.8l0.3,0.2
		c0.1,0.2,0.1,0.3-0.1,0.4c-0.1,0-0.2,0.1-0.3,0.3l0.9-0.1l0.1-0.1l0.5-0.2l0.4-0.7l-0.4-1.1v-0.1l1,0.5v0.4c0,0-0.2,0.7-0.2,1
		c-0.1,0.2-0.1,0.3-0.1,0.4L34,28.3l-0.5,1.3c-0.1,0.2-0.2,0.5-0.2,0.8c0,0.2,0,0.4-0.5,0.5v0.3L33.3,31.4z"/>
	<path class="st1" d="M31.4,24.4"/>
	<path class="st1" d="M31.4,22.9L31.4,22.9"/>
</g>
</svg>
