<?xml version="1.0" encoding="utf-8"?>
<!-- Generator: Adobe Illustrator 22.0.1, SVG Export Plug-In . SVG Version: 6.00 Build 0)  -->
<svg version="1.1" id="Слой_1" xmlns="http://www.w3.org/2000/svg" xmlns:xlink="http://www.w3.org/1999/xlink" x="0px" y="0px"
	 viewBox="0 0 72 72" style="enable-background:new 0 0 72 72;" xml:space="preserve">
<style type="text/css">
	.st0{fill:#EF7F1A;}
	.st1{fill:#FFFFFF;}
</style>
<path class="st0" d="M64.1,72.7H8.6c-4.5,0-8.2-3.7-8.2-8.2V8.9c0-4.5,3.7-8.2,8.2-8.2h55.5c4.5,0,8.2,3.7,8.2,8.2v55.5
	C72.3,68.9,68.6,72.7,64.1,72.7z"/>
<g>
	<path class="st1" d="M44.6,59.3c-0.5,0.1-0.7,0.4-0.7,1s0.2,0.9,0.7,0.9c0.5,0,0.8-0.3,0.8-0.9C45.3,59.7,45,59.3,44.6,59.3z"/>
	<path class="st1" d="M50.7,56.9L50.7,56.9c-0.5,0-0.8,0.3-0.8,1.1c0,0.7,0.3,1,0.8,1l0,0c0.5,0,0.8-0.3,0.8-1
		C51.3,57.2,51.1,56.9,50.7,56.9z"/>
	<path class="st1" d="M17.7,60.6c0.1-0.2,0.4-0.3,0.9-0.5l1-0.4h-0.4h-0.5c-0.8,0-1.3,0.1-1.7,0.4c-0.4,0.3-0.8,0.8-1.1,1.4L15,60.6
		l-1,1.9l1.9,1c-0.5-0.2-1.1,0.2-1.9,1.2l-0.8,1.4c-0.1,0.1-0.1,0.2-0.1,0.4s-0.2,1.1-0.2,1.1h3.5l0,0h3V67c0,0-0.5-1.8-0.5-2.5l0,0
		l-0.1-2L18.3,62l-0.5-0.5l0.6-0.2V61L17.7,60.6z"/>
	<path class="st1" d="M58,43.3l-0.4-0.8l-0.3-0.8L57,40.7c-0.6,0-1.2,0-1.9-0.1l-0.4-0.1c-0.6-0.1-1.2-0.1-1.9-0.2l-1.5-0.3
		l-0.8-0.2l-1.7-0.3l-0.3-1.7c0-0.7-0.1-1.4-0.4-2.2c-0.1-0.5-0.4-1.1-0.9-1.6L47,33.8c-0.2-0.2-0.8-0.2-0.8-0.2s-0.6,0-0.8,0
		s-0.3,0.1-0.5,0.1l1.7-2l0,0l0,0l-0.9-4.9l0,0l0,0l0,0L44.6,22l-0.5-0.9c-0.2-0.3-0.5-0.4-0.8-0.4c-0.1,0-0.1,0-0.2,0
		c-0.2,0.1-0.5,0.1-0.9,0.4l0.5-0.4c0.1-0.1,0.2-0.2,0.4-0.5c0,0,0-0.1,0.1-0.1c0-0.1,0.1-0.1,0.1-0.1v-0.4c0-0.1-0.1-0.3-0.1-0.5
		c-0.1-0.4-0.3-0.8-0.5-1.3l-2.1-4.1l0,0l0,0l0,0L39.3,11l0,0l-0.5-0.9c-0.4-0.7-0.7-1.1-0.9-1.1l-1.4-0.8l0,0l-0.7-0.4
		c-0.3-0.3-0.5-0.6-0.5-1.1V6.7l0.6-1c0.1-0.1-0.1,0.1,0,0c0.1-0.1,0.2-0.5,0.4-0.7V4.9V4.7h-0.3h-0.4c-0.7,0-1.2,0.1-1.7,0.1
		c-0.3,0.1-0.5,0.1-0.7,0.2c-0.6,0.3-1,0.6-1.3,1.1c-0.3,0.5-0.5,1-0.6,1.7c-0.1,0.6-0.1,1.2-0.1,1.8l-0.1,2.8l-0.7,2.2l-0.9,1.7
		l-0.2,0.4l-1,2.3c-0.3,0.7-0.4,1.4-0.4,2.1c0,0.1,0,0.1,0.1,0.1c0,0.1,0.1,0.2,0.3,0.5l0.5,0.3c-0.3,0.8-0.5,1.7-0.8,2.6
		c-0.3,0.9-2.5,7-2.9,7.9l0,0l0,0l-3.7,10.6l-0.3,0.5L19.7,47l0,0l0,0l-1.5,3.7l-0.2,1l0.1,1.1c0.1,0.3,0.3,0.6,0.8,0.8
		c-0.7,0.4-1.2,0.8-1.4,1.3c-0.2,0.4-0.3,1.1-0.3,2.1v0.7v0.7c1.5-0.3,2.5-0.9,3-1.8c0.5-0.9,0.8-1.9,0.8-2.9l0.2-2.1
		c0.1-0.6,0.2-1.1,0.5-1.7s0.7-1,1.3-1.2c-0.1,0.1-0.1,0.3-0.1,0.8c0,0.5,0.1,0.8,0.3,1c0.5,0.2,0.9,0.3,1.3,0.3h1l1.9,0.3
		c0.6-0.1,1.1-0.3,1.9-0.9v1.1L30,51l4.7-0.3l1.2-0.1c0.3-0.1,0.6-0.1,0.9-0.1c1-0.2,2.5-0.3,3.2-0.9l0,0l0,0l0,0H42h1.4v3h0.3h0.9
		l-0.9,1l-0.9,1l0.9,0.9l0,0l0,0c-0.6,0.5-0.9,1.2-0.9,2h0.9h1.7v0.9l0.8-0.6c0.1-0.1,0.4-0.2,0.6-0.3c0.1-0.1-0.1,0.1,0,0l0.2-0.1
		c0.2,0,0.5,0.1,0.9,0.4l0.9,0.6l0.6-1.4l0.4-1.7l0,0l0.6-1.7v-0.4c0,0,0.1-1.2-0.2-1.5c-0.1-0.4-0.4-0.7-0.8-0.8l-0.6-0.2l-0.5-0.2
		L47,49.9c0.1-0.2,0.8-0.6,1.6-0.9c0.2-0.1-0.1,0.1,0,0c0.5-0.2,2.9-1,3.3-1c0.1-0.1-0.2,0.1,0,0c0.3-0.1-0.3,0.1,0,0
		c0.1,0-0.1,0.1,0,0l0,0l3.7-0.9c1.2-0.2,2-0.3,2.3-0.1l-0.5-0.5l0.1-0.8v0.1v-0.3l-0.9-0.2l0.3-0.5c0.1-0.1,0.2-0.2,0.5-0.4
		l1.1,0.9v-0.3l-0.1-0.5L58,43.3z M42,39.5l0.3,0.5l0.5,0.4c-0.3,0.2-0.5,0.5-0.8,0.6l0,0c-0.3,0.1-0.8,0.5-1,0.5
		c-0.1,0.1,0.1-0.1,0,0s-0.5,0.3-0.7,0.3l0,0c-0.2,0.1-0.6,0.3-1,0.4l0,0l-2.4,0.3h-0.1l-1.7,0.6l-0.5,0.4h-0.1l-0.8-0.8L33,42.5
		l-0.5-0.2l-1.4,0.2L30,42.8l-1.3,0.3l-2.5,0.6l-1.3,0.9h-0.5h-0.5l0.1-0.8l0.1-0.4c0.3-0.7,0.7-1.4,0.9-1.9
		c0.3-0.6,0.5-1.1,0.7-1.6c0.1-0.2,0.3-0.6,0.5-1.2c0.3-0.6,0.6-1.4,0.9-2.4c0.5-1,0.8-1.9,1.1-2.6c0.3-0.6,0.5-1.2,0.7-1.6
		c0.1-0.5,0.3-0.9,0.5-1.4c0.2-0.6,0.4-1.1,0.6-1.7l0.1-0.2c0.6-1.5,1-2.7,1.3-3.6c0.1-0.5,0.3-1,0.5-1.7s0.3-1.4,0.5-2.2
		c0.5-1.7,0.8-3.1,1.1-4.3s0.7-3.4,0.7-3.4h0.6h0.4l0.1,0.8l0.2,1.4L36,18c0.1,0.2-0.1-0.4,0,0l0,0l0.5,2.2c0.1,0.2,0.2,0.4,0.3,0.5
		c0.1,0.2,0.3,0.4,0.5,0.5c0.4,0.1,0.8-0.1,1.2-0.5L38,21.6l-0.3,0.9l0.1,1l0.2,1.6l0.3,1.7l0.3,1l0.7-0.1h0.2h0.8h0.1l0.4,0.4
		l0.6,0.2c0.3,0.2,0.5,0.5,0.6,0.8l-1.2,1.4L40.3,31l-0.8,1l0.8-0.3h0.1l0.4,0.9l0.4,0.3c0.1,0.2,0.1,0.3-0.1,0.5
		c-0.1,0-0.2,0.1-0.3,0.3l1.1-0.1l0.1-0.1l0.6-0.3l0.5-0.8l0.2-1.4V31l1,0.7v0.5c0,0-0.6,0.9-0.7,1.2c-0.1,0.2-0.1,0.3-0.1,0.5
		l-0.7,1.6l-0.6,1.6c-0.1,0.3-0.2,0.6-0.2,1c0,0.2,0,0.5-0.7,0.7v0.4L42,39.5z"/>
	<path class="st1" d="M39.6,30.7"/>
	<path class="st1" d="M39.6,28.7L39.6,28.7"/>
</g>
</svg>
