<?xml version="1.0" encoding="UTF-8"?>
<!DOCTYPE svg PUBLIC "-//W3C//DTD SVG 1.1//EN" "http://www.w3.org/Graphics/SVG/1.1/DTD/svg11.dtd">
<!-- Creator: CorelDRAW X6 -->
<svg xmlns="http://www.w3.org/2000/svg" xml:space="preserve" width="115.985mm" height="35.5075mm" version="1.1" style="shape-rendering:geometricPrecision; text-rendering:geometricPrecision; image-rendering:optimizeQuality; fill-rule:evenodd; clip-rule:evenodd"
viewBox="0 0 12650 3873"
 xmlns:xlink="http://www.w3.org/1999/xlink">
 <defs>
  <style type="text/css">
   <![CDATA[
    .fil0 {fill:#A0A4BC}
    .fil1 {fill:#A0A4BC;fill-rule:nonzero}
   ]]>
  </style>
 </defs>
 <g id="Слой_x0020_1">
  <metadata id="CorelCorpID_0Corel-Layer"/>
  <g id="_572362960">
   <g>
    <path class="fil0" d="M186 3813l0 60 194 0 0 -69c-6,-22 -8,-58 -8,-107l-9 -107 -4 -69 -25 -30 -34 -30 -4 -13 0 -17 4 -26c9,-11 27,-23 55,-34l59 -30 -26 0 -29 0c-45,0 -80,9 -105,28 -25,19 -48,49 -67,92l-55 -56 -63 116 118 60c-28,-14 -66,12 -114,77l-51 90c-3,6 -6,15 -9,26 -3,11 -7,25 -13,39l186 0zm1896 -473c-31,6 -46,27 -46,64 0,38 15,56 46,56 34,0 51,-19 51,-56 -6,-43 -23,-64 -51,-64zm-1723 -349c-53,26 -86,52 -98,80 -13,27 -19,69 -19,127l0 43 0 43c104,-17 174,-53 211,-108 36,-54 55,-113 55,-176l13 -125c3,-35 13,-69 31,-103 18,-35 50,-60 95,-77 -3,6 -4,21 -4,47 0,28 7,49 21,60 34,11 63,17 88,17l55 0 130 -5c40,-3 77,-22 114,-56l0 68 455 -26c112,-20 203,-31 271,-33 69,-1 133,-2 192,-2l0 163 113 0 -113 120 59 56c-45,29 -67,68 -67,120l181 0 0 56 55 -35c6,-3 14,-6 25,-10 11,-4 23,-8 34,-11 17,0 36,7 59,21l59 35 38 -86 21 -73 21 -60 33 -74 0 -30c0,-40 -8,-70 -25,-90 -8,-23 -25,-38 -50,-47l-72 -26 -84 -38c2,-11 31,-27 84,-47 51,-20 88,-34 114,-41 25,-7 65,-17 118,-28l231 -52c79,-11 127,-14 144,-8l-34 -30 -30 -43 0 -17 0 -17 4 -13 25 -30c3,-6 14,-14 34,-26l59 56 0 -22 4 -34 -17 -60 -26 -47 -25 -47 -13 -69c-39,0 -82,-2 -129,-6 -46,-4 -98,-9 -154,-15l-274 -52 -25 -103c0,-43 -10,-88 -30,-134 -9,-34 -28,-67 -59,-99 -14,-14 -34,-22 -59,-22 -6,0 -14,0 -26,0 -11,0 -23,3 -33,9l114 -120 -13 -60 -29 -146 -38 -176 -33 -142 -21 -60 -30 -56c-14,-17 -31,-26 -51,-26 -17,0 -41,7 -71,22l30 -26c6,-3 14,-13 25,-30 0,-3 3,-7 9,-13l0 -21c0,-17 -13,-53 -38,-107l-97 -177 -101 -168 -55 -103c-28,-43 -49,-66 -63,-69l-75 -38 -68 -34c-19,-17 -30,-38 -30,-65l0 -30 30 -56c2,-6 6,-12 8,-19 3,-7 10,-18 21,-33 0,-3 1,-6 4,-8l-30 0c-70,0 -126,8 -167,24 -41,16 -71,38 -90,68 -19,30 -33,63 -40,99 -7,36 -11,72 -11,109l-8 168 -51 134 -80 129 -72 138c-19,43 -29,86 -29,129 0,3 1,6 3,8 1,3 7,13 19,30l38 17c-17,52 -36,106 -56,161 -21,56 -45,113 -70,170l-131 314 -135 318 -126 331 -17 30 -42 86 -59 125 -59 125 -46 103 -13 60 8 68c6,20 24,36 55,47zm2128 177c-31,0 -46,20 -46,60 0,37 15,56 46,56 31,0 46,-19 46,-56 -6,-40 -21,-60 -46,-60zm-459 -408c28,0 42,19 42,56 0,40 -14,60 -42,60 -31,0 -46,-20 -46,-60 0,-37 16,-56 46,-56zm-577 -120c31,0 46,19 46,56 0,43 -16,65 -46,65 -31,-3 -46,-24 -46,-65 0,-37 15,-56 46,-56zm118 0l17 13 8 17c-6,17 -16,26 -29,26 -17,0 -25,-9 -25,-26 0,-26 9,-36 30,-30zm1205 0c-28,0 -42,19 -42,56 0,43 14,65 42,65 31,-3 46,-24 46,-65 0,-37 -15,-56 -46,-56zm-518 -56c31,0 46,19 46,56 0,37 -16,56 -46,56 -31,0 -46,-19 -46,-56 0,-38 16,-56 46,-56zm-805 -120c31,0 46,19 46,56 0,43 -16,65 -46,65 -31,-3 -46,-24 -46,-65 0,-37 15,-56 46,-56zm-55 -56c28,0 42,19 42,56 0,37 -14,56 -42,56 -31,0 -46,-19 -46,-56 0,-37 16,-56 46,-56zm401 0c31,0 46,19 46,56 0,37 -15,56 -46,56 -31,0 -46,-19 -46,-56 0,-37 15,-56 46,-56zm577 0c31,0 46,19 46,56 0,37 -16,56 -46,56 -31,0 -46,-19 -46,-56 0,-37 16,-56 46,-56zm-978 -1939l55 0 8 56 12 90 21 90c2,12 7,30 12,56l8 47 29 95c17,29 35,52 55,69 28,6 56,-6 84,-35l-38 56 -21 60 9 69 13 107 17 111 21 65 51 -8 67 0 68 17c19,14 34,31 42,51l-169 177 59 21 55 35c6,11 4,22 -4,30 -6,0 -13,7 -21,22l72 -5 50 -22 38 -51 38 -90 4 43 0 47c0,49 -6,84 -17,107l-46 99 -42 99c-11,29 -17,65 -17,108l0 26 25 35 34 26c-19,15 -38,27 -55,36 -17,10 -35,18 -55,24 -22,15 -43,25 -61,33 -18,7 -45,16 -78,28l-148 43 -122 13 -34 -9 -51 -21 -55 -17 -34 -13 -93 13 -168 38 -164 39 -89 30 -38 0 -34 0 4 -35 4 -26c25,-43 47,-82 65,-118 18,-36 33,-68 44,-97 6,-11 18,-36 36,-75 19,-38 40,-88 66,-148 31,-63 56,-118 78,-165 21,-47 38,-87 53,-118 11,-31 23,-63 34,-95 11,-31 24,-61 38,-90 39,-91 69,-168 88,-228 11,-29 23,-63 36,-103 12,-40 25,-85 36,-134 31,-103 56,-193 74,-271 18,-77 34,-156 48,-237zm1151 1762c31,0 46,19 46,56 0,40 -15,60 -46,60 -34,-3 -51,-23 -51,-60 6,-38 23,-56 51,-56zm-750 -356l0 120 59 0 0 -120 -59 0zm-55 -409c-34,3 -50,23 -50,60 6,38 22,56 50,56 31,0 46,-19 46,-56 0,-40 -15,-60 -46,-60zm55 -236c31,0 46,20 46,60 0,40 -15,60 -46,60 -31,-3 -46,-23 -46,-60 0,-40 15,-60 46,-60zm113 0c6,3 16,13 30,30l-12 21 -17 13 -17 -4c-2,-6 -6,-16 -8,-30 2,-23 11,-33 25,-30zm-804 -352c33,6 50,26 50,60 -6,40 -23,60 -50,60 -31,0 -46,-20 -46,-60 0,-40 15,-60 46,-60zm2254 2258l0 -674 802 0 0 674 234 0 0 -903 -1267 0 0 903 231 0zm1468 -907c-44,0 -85,7 -122,20 -38,13 -71,32 -99,57 -28,25 -51,55 -67,91 -16,36 -25,76 -25,122l0 327c0,43 9,82 26,118 17,35 40,66 69,91 29,26 62,46 99,60 37,14 76,21 117,21l927 0 0 -239 -1013 0 0 -98 1013 0 0 -233 -1013 0 0 -105 1013 0 0 -232 -925 0zm1275 907l0 -674 802 0 0 674 234 0 0 -903 -993 0c-34,0 -68,9 -100,26 -33,17 -62,40 -88,68 -26,28 -47,60 -62,95 -16,35 -23,70 -23,106l0 609 231 0zm2129 0c39,0 77,-7 115,-21 38,-14 72,-33 101,-58 29,-25 53,-54 71,-89 18,-35 27,-72 27,-113 0,-40 -8,-77 -23,-112 -16,-34 -36,-65 -63,-91 -26,-26 -57,-46 -92,-62 -35,-15 -72,-23 -110,-23l-766 0 0 -336 -234 0 0 903 974 0zm-740 -229l0 -115 820 0 0 115 -820 0zm2429 -674l-921 0c-111,0 -194,27 -250,82 -56,54 -84,138 -84,250l0 302c0,39 8,75 25,107 17,32 39,60 66,84 27,24 58,42 93,55 35,13 70,19 107,19l965 0 0 -224 -1026 0 0 -448 1026 0 0 -226zm1350 197c0,-37 -6,-70 -19,-97 -12,-27 -29,-50 -50,-67 -21,-17 -44,-30 -71,-39 -26,-9 -54,-13 -82,-13 -64,0 -125,29 -184,88l-601 603 0 -670 -225 0 0 657c0,34 5,67 15,98 10,31 24,58 43,80 19,23 42,41 69,54 27,13 58,20 93,20 33,0 66,-7 97,-21 31,-14 61,-36 89,-67l601 -598 0 673 223 0 0 -701zm343 -199l-224 0 0 899 224 0 0 -340 814 0 0 340 223 0 0 -899 -223 0 0 330 -814 0 0 -330z"/>
    <path class="fil1" d="M7254 1465l132 0 0 150 69 0 149 -150 182 0 -214 204 242 224 -191 0 -167 -167 -69 0 0 167 -132 0 0 -428zm1218 214c0,104 -13,167 -38,187 -27,22 -109,33 -246,33 -100,0 -166,-4 -197,-11 -39,-9 -64,-29 -74,-60 -8,-24 -12,-73 -12,-149 0,-104 12,-167 37,-187 27,-22 109,-34 246,-34 136,0 218,11 245,33 26,21 38,83 38,188zm-435 0c0,55 6,87 19,96 13,9 57,13 132,13 76,0 120,-4 133,-13 13,-9 19,-41 19,-96 0,-55 -6,-87 -19,-96 -13,-9 -57,-14 -132,-14 -76,0 -120,5 -133,14 -13,9 -19,41 -19,96zm528 -214l0 428 132 0 0 -300c0,-4 -1,-8 -2,-14 -3,-13 -4,-19 -4,-20 0,-3 1,-4 4,-4 2,0 3,2 5,6 2,4 4,9 7,14l164 318 108 0 152 -318c2,-4 4,-8 6,-13 2,-5 4,-7 6,-7 2,0 4,2 4,5 0,2 -1,6 -3,14 -2,8 -3,14 -3,19l0 300 132 0 0 -428 -225 0 -113 241c-2,16 -4,28 -6,37 -1,9 -3,14 -4,14 -2,0 -4,-8 -6,-24 -2,-16 -3,-25 -5,-28l-113 -241 -237 0zm835 -1l561 0 0 429 -132 0 0 -318 -297 0 0 318 -132 0 0 -429zm846 1l227 0 212 428 -154 0 -41 -71 -262 0 -41 71 -154 0 212 -428zm124 97l-20 0 -71 149 163 0 -71 -149zm392 -97l132 0 0 150 285 0 0 -150 132 0 0 428 -132 0 0 -167 -285 0 0 167 -132 0 0 -428zm674 0l132 0 0 295c-3,11 -6,22 -10,33 0,4 -1,8 -1,12 3,0 5,-3 8,-8 3,-5 5,-10 8,-16l226 -317 216 0 0 428 -132 0 0 -296c0,0 3,-11 10,-33 0,-4 0,-8 1,-12 -3,0 -5,3 -8,8 -3,5 -5,11 -8,15l-226 317 -216 0 0 -428zm1216 -1l0 429 -132 0 0 -120 -209 0c-15,0 -26,4 -33,13 -7,9 -11,19 -11,30l0 77 -132 0 0 -96c0,-26 4,-45 13,-56 7,-10 23,-20 47,-31 -22,-8 -37,-22 -46,-40 -9,-18 -13,-45 -13,-82 0,-49 13,-83 39,-103 20,-15 51,-22 93,-22l384 0zm-132 111l-212 0c-14,0 -25,3 -31,9 -6,6 -9,18 -9,34 0,16 3,27 10,34 6,6 17,10 31,10l212 0 0 -87z"/>
   </g>
   <path class="fil1" d="M3184 3632c0,57 7,92 20,103 13,11 54,16 121,16 63,0 101,-3 115,-10 16,-8 24,-28 24,-62l50 0c0,50 -11,81 -33,95 -22,13 -74,20 -156,20 -83,0 -136,-9 -158,-27 -22,-18 -33,-63 -33,-134 0,-71 11,-116 32,-135 22,-18 74,-28 158,-28 82,0 134,6 156,19 22,13 33,44 33,95l-50 0c0,-34 -7,-54 -22,-61 -15,-7 -54,-10 -117,-10 -68,0 -108,6 -121,16 -13,11 -19,45 -19,103zm383 -158l352 0 0 42 -151 0 0 272 -50 0 0 -272 -151 0 0 -42zm406 314l0 -315 275 0c30,0 53,8 70,25 17,17 25,42 25,75 0,34 -9,59 -26,75 -17,16 -41,25 -72,25l-223 0 0 114 -50 0zm50 -157l223 0c14,0 26,-5 34,-14 9,-9 13,-24 13,-44 0,-20 -4,-35 -13,-44 -8,-9 -20,-14 -35,-14l-222 0 0 115zm603 161c-70,0 -119,-4 -147,-12 -28,-8 -46,-24 -53,-48 -5,-16 -8,-50 -8,-101 0,-52 2,-85 7,-101 8,-24 25,-40 54,-49 28,-9 77,-13 147,-13 70,0 119,4 147,12 28,8 46,25 54,48 5,16 8,50 8,101 0,52 -2,85 -7,100 -8,24 -25,40 -53,49 -28,8 -77,13 -147,13zm0 -42c77,0 123,-6 137,-16 14,-11 21,-45 21,-103 0,-58 -7,-93 -21,-103 -14,-11 -59,-16 -137,-16 -78,0 -124,5 -137,16 -14,11 -20,45 -20,104 0,58 7,92 21,103 14,11 59,16 137,16zm696 -278l-73 0 -289 276 0 -276 -50 0 0 315 76 0 286 -273 0 273 50 0 0 -315zm66 0l352 0 0 42 -151 0 0 272 -50 0 0 -272 -151 0 0 -42zm403 0l323 0 0 42 -272 0 0 92 263 0 0 42 -263 0 0 96 272 0 0 42 -323 0 0 -315zm384 272l20 0c11,0 20,-9 27,-27 8,-21 11,-57 11,-107l0 -7 0 -6 0 -5c0,-6 0,-11 0,-16 0,-5 0,-10 0,-15l0 -88 344 0 0 315 -50 0 0 -272 -244 0 0 59 0 21c0,29 -1,55 -3,76 -3,34 -8,60 -16,79 -9,24 -23,36 -40,36l-49 0 0 -42zm493 -273l50 0 0 115 222 0c31,0 54,8 71,23 18,17 27,42 27,76 0,34 -8,59 -25,76 -17,16 -40,25 -71,25l-275 0 0 -315zm50 158l0 115 222 0c15,0 26,-5 35,-14 9,-9 13,-24 13,-44 0,-20 -4,-34 -13,-43 -8,-9 -20,-14 -35,-14l-223 0zm446 0c0,57 7,91 20,103 13,11 54,17 121,16 63,0 101,-3 115,-10 16,-8 24,-28 24,-62l50 0c0,50 -11,81 -33,95 -22,13 -74,20 -156,20 -83,0 -136,-9 -158,-27 -22,-18 -33,-63 -33,-134 0,-71 11,-116 32,-135 22,-18 74,-28 158,-28 82,0 134,6 156,19 22,13 33,44 33,95l-50 0c0,-34 -7,-54 -22,-61 -15,-7 -54,-10 -117,-10 -68,0 -108,6 -121,16 -13,11 -19,45 -19,103zm383 -158l352 0 0 42 -151 0 0 272 -50 0 0 -272 -151 0 0 -42zm781 222c0,31 -9,54 -27,69 -18,15 -45,23 -80,23l-270 0 0 -315 259 0c34,0 61,8 79,23 18,15 28,37 28,66 0,32 -13,52 -38,61 14,5 26,12 34,23 11,13 16,30 16,50zm-62 -133c0,-14 -4,-25 -12,-33 -10,-9 -25,-14 -45,-14l-208 0 0 89 208 0c21,0 36,-3 45,-10 8,-7 13,-18 12,-32zm-265 85l0 98 220 0c19,0 33,-5 43,-14 10,-9 15,-21 14,-36 0,-14 -5,-26 -15,-35 -10,-9 -24,-14 -43,-14l-220 0zm614 145c-70,0 -119,-4 -147,-12 -28,-8 -46,-24 -53,-48 -5,-16 -8,-50 -8,-101 0,-52 2,-85 7,-101 8,-24 25,-40 54,-49 28,-9 77,-13 147,-13 70,0 119,4 147,12 28,8 46,25 53,48 5,16 8,50 8,101 0,52 -2,85 -7,100 -8,24 -25,40 -53,49 -28,8 -77,13 -147,13zm0 -42c77,0 123,-6 137,-16 14,-11 21,-45 21,-103 0,-58 -7,-93 -21,-103 -14,-11 -59,-16 -137,-16 -78,0 -124,6 -137,16 -14,11 -20,45 -20,104 0,58 7,92 21,103 14,11 59,16 137,16zm939 -278l-73 0 -289 276 0 -276 -50 0 0 315 76 0 286 -273 0 273 50 0 0 -315zm323 314l0 -315 275 0c30,0 53,8 70,25 17,17 25,42 25,75 0,34 -9,59 -26,75 -17,16 -41,25 -72,25l-223 0 0 115 -50 0zm50 -157l223 0c14,0 26,-5 34,-14 9,-9 13,-24 13,-44 0,-20 -4,-35 -13,-44 -8,-9 -20,-14 -35,-14l-222 0 0 115zm391 -158l323 0 0 42 -272 0 0 92 263 0 0 42 -263 0 0 96 272 0 0 42 -323 0 0 -315zm493 -1l175 258 174 -259 90 0 0 315 -50 0 0 -272 -10 0 -188 272 -32 0 -189 -272 -9 0 0 272 -50 0 0 -315 90 0zm743 318c-70,0 -119,-4 -147,-12 -28,-8 -46,-24 -53,-48 -5,-16 -8,-50 -8,-101 0,-52 2,-85 7,-101 8,-24 25,-40 54,-49 28,-9 77,-13 147,-13 70,0 119,4 147,12 28,8 46,25 53,48 5,16 8,50 8,101 0,52 -2,85 -7,100 -8,24 -25,40 -53,49 -28,8 -77,13 -147,13zm0 -42c77,0 123,-6 137,-16 14,-11 21,-45 21,-103 0,-58 -7,-93 -21,-103 -14,-11 -59,-16 -137,-16 -78,0 -124,5 -137,16 -14,11 -20,45 -20,104 0,58 7,92 21,103 14,11 59,16 137,16zm283 -277l50 0 0 133 290 0 0 -133 50 0 0 315 -50 0 0 -139 -290 0 0 139 -50 0 0 -315zm451 0l352 0 0 42 -151 0 0 272 -50 0 0 -272 -151 0 0 -42z"/>
   <path class="fil1" d="M3184 3632c0,57 7,92 20,103 13,11 54,16 121,16 63,0 101,-3 115,-10 16,-8 24,-28 24,-62l50 0c0,50 -11,81 -33,95 -22,13 -74,20 -156,20 -83,0 -136,-9 -158,-27 -22,-18 -33,-63 -33,-134 0,-71 11,-116 32,-135 22,-18 74,-28 158,-28 82,0 134,6 156,19 22,13 33,44 33,95l-50 0c0,-34 -7,-54 -22,-61 -15,-7 -54,-10 -117,-10 -68,0 -108,6 -121,16 -13,11 -19,45 -19,103zm383 -158l352 0 0 42 -151 0 0 272 -50 0 0 -272 -151 0 0 -42zm406 314l0 -315 275 0c30,0 53,8 70,25 17,17 25,42 25,75 0,34 -9,59 -26,75 -17,16 -41,25 -72,25l-223 0 0 114 -50 0zm50 -157l223 0c14,0 26,-5 34,-14 9,-9 13,-24 13,-44 0,-20 -4,-35 -13,-44 -8,-9 -20,-14 -35,-14l-222 0 0 115zm603 161c-70,0 -119,-4 -147,-12 -28,-8 -46,-24 -53,-48 -5,-16 -8,-50 -8,-101 0,-52 2,-85 7,-101 8,-24 25,-40 54,-49 28,-9 77,-13 147,-13 70,0 119,4 147,12 28,8 46,25 54,48 5,16 8,50 8,101 0,52 -2,85 -7,100 -8,24 -25,40 -53,49 -28,8 -77,13 -147,13zm0 -42c77,0 123,-6 137,-16 14,-11 21,-45 21,-103 0,-58 -7,-93 -21,-103 -14,-11 -59,-16 -137,-16 -78,0 -124,5 -137,16 -14,11 -20,45 -20,104 0,58 7,92 21,103 14,11 59,16 137,16zm696 -278l-73 0 -289 276 0 -276 -50 0 0 315 76 0 286 -273 0 273 50 0 0 -315zm66 0l352 0 0 42 -151 0 0 272 -50 0 0 -272 -151 0 0 -42zm403 0l323 0 0 42 -272 0 0 92 263 0 0 42 -263 0 0 96 272 0 0 42 -323 0 0 -315zm384 272l20 0c11,0 20,-9 27,-27 8,-21 11,-57 11,-107l0 -7 0 -6 0 -5c0,-6 0,-11 0,-16 0,-5 0,-10 0,-15l0 -88 344 0 0 315 -50 0 0 -272 -244 0 0 59 0 21c0,29 -1,55 -3,76 -3,34 -8,60 -16,79 -9,24 -23,36 -40,36l-49 0 0 -42zm493 -273l50 0 0 115 222 0c31,0 54,8 71,23 18,17 27,42 27,76 0,34 -8,59 -25,76 -17,16 -40,25 -71,25l-275 0 0 -315zm50 158l0 115 222 0c15,0 26,-5 35,-14 9,-9 13,-24 13,-44 0,-20 -4,-34 -13,-43 -8,-9 -20,-14 -35,-14l-223 0zm446 0c0,57 7,91 20,103 13,11 54,17 121,16 63,0 101,-3 115,-10 16,-8 24,-28 24,-62l50 0c0,50 -11,81 -33,95 -22,13 -74,20 -156,20 -83,0 -136,-9 -158,-27 -22,-18 -33,-63 -33,-134 0,-71 11,-116 32,-135 22,-18 74,-28 158,-28 82,0 134,6 156,19 22,13 33,44 33,95l-50 0c0,-34 -7,-54 -22,-61 -15,-7 -54,-10 -117,-10 -68,0 -108,6 -121,16 -13,11 -19,45 -19,103zm383 -158l352 0 0 42 -151 0 0 272 -50 0 0 -272 -151 0 0 -42zm781 222c0,31 -9,54 -27,69 -18,15 -45,23 -80,23l-270 0 0 -315 259 0c34,0 61,8 79,23 18,15 28,37 28,66 0,32 -13,52 -38,61 14,5 26,12 34,23 11,13 16,30 16,50zm-62 -133c0,-14 -4,-25 -12,-33 -10,-9 -25,-14 -45,-14l-208 0 0 89 208 0c21,0 36,-3 45,-10 8,-7 13,-18 12,-32zm-265 85l0 98 220 0c19,0 33,-5 43,-14 10,-9 15,-21 14,-36 0,-14 -5,-26 -15,-35 -10,-9 -24,-14 -43,-14l-220 0zm614 145c-70,0 -119,-4 -147,-12 -28,-8 -46,-24 -53,-48 -5,-16 -8,-50 -8,-101 0,-52 2,-85 7,-101 8,-24 25,-40 54,-49 28,-9 77,-13 147,-13 70,0 119,4 147,12 28,8 46,25 53,48 5,16 8,50 8,101 0,52 -2,85 -7,100 -8,24 -25,40 -53,49 -28,8 -77,13 -147,13zm0 -42c77,0 123,-6 137,-16 14,-11 21,-45 21,-103 0,-58 -7,-93 -21,-103 -14,-11 -59,-16 -137,-16 -78,0 -124,6 -137,16 -14,11 -20,45 -20,104 0,58 7,92 21,103 14,11 59,16 137,16zm939 -278l-73 0 -289 276 0 -276 -50 0 0 315 76 0 286 -273 0 273 50 0 0 -315zm323 314l0 -315 275 0c30,0 53,8 70,25 17,17 25,42 25,75 0,34 -9,59 -26,75 -17,16 -41,25 -72,25l-223 0 0 115 -50 0zm50 -157l223 0c14,0 26,-5 34,-14 9,-9 13,-24 13,-44 0,-20 -4,-35 -13,-44 -8,-9 -20,-14 -35,-14l-222 0 0 115zm391 -158l323 0 0 42 -272 0 0 92 263 0 0 42 -263 0 0 96 272 0 0 42 -323 0 0 -315zm493 -1l175 258 174 -259 90 0 0 315 -50 0 0 -272 -10 0 -188 272 -32 0 -189 -272 -9 0 0 272 -50 0 0 -315 90 0zm743 318c-70,0 -119,-4 -147,-12 -28,-8 -46,-24 -53,-48 -5,-16 -8,-50 -8,-101 0,-52 2,-85 7,-101 8,-24 25,-40 54,-49 28,-9 77,-13 147,-13 70,0 119,4 147,12 28,8 46,25 53,48 5,16 8,50 8,101 0,52 -2,85 -7,100 -8,24 -25,40 -53,49 -28,8 -77,13 -147,13zm0 -42c77,0 123,-6 137,-16 14,-11 21,-45 21,-103 0,-58 -7,-93 -21,-103 -14,-11 -59,-16 -137,-16 -78,0 -124,5 -137,16 -14,11 -20,45 -20,104 0,58 7,92 21,103 14,11 59,16 137,16zm283 -277l50 0 0 133 290 0 0 -133 50 0 0 315 -50 0 0 -139 -290 0 0 139 -50 0 0 -315zm451 0l352 0 0 42 -151 0 0 272 -50 0 0 -272 -151 0 0 -42z"/>
  </g>
 </g>
</svg>
