<?xml version="1.0" encoding="UTF-8"?>
<!DOCTYPE svg PUBLIC "-//W3C//DTD SVG 1.1//EN" "http://www.w3.org/Graphics/SVG/1.1/DTD/svg11.dtd">
<!-- Creator: CorelDRAW X6 -->
<svg xmlns="http://www.w3.org/2000/svg" xml:space="preserve" width="13.5467mm" height="13.6792mm" version="1.1" style="shape-rendering:geometricPrecision; text-rendering:geometricPrecision; image-rendering:optimizeQuality; fill-rule:evenodd; clip-rule:evenodd"
viewBox="0 0 789 797"
 xmlns:xlink="http://www.w3.org/1999/xlink">
 <defs>
  <style type="text/css">
   <![CDATA[
    .fil0 {fill:#8386A2;fill-rule:nonzero}
   ]]>
  </style>
 </defs>
 <g id="Слой_x0020_1">
  <metadata id="CorelCorpID_0Corel-Layer"/>
  <path class="fil0" d="M348 0c3,3 7,5 10,6 6,2 12,4 19,4 14,0 29,0 43,2 15,2 30,6 44,13 10,5 19,11 27,18 6,5 12,10 15,18 1,2 0,5 2,8 2,2 5,2 7,3 5,3 9,8 11,13 5,11 7,22 8,34 0,5 0,9 -1,14 -2,25 -5,50 -7,75 3,-1 6,-1 8,1 3,4 3,8 3,13 0,13 -2,25 -5,37 -2,9 -4,17 -7,25 -2,4 -4,9 -8,11 -3,1 -6,1 -8,0 -4,22 -12,44 -22,64 -1,2 -2,3 -2,5 2,24 4,49 6,73 0,5 -2,10 -5,13 -27,24 -53,48 -80,72 11,12 21,23 32,35 1,1 1,3 0,4 -7,8 -15,16 -24,23 7,13 14,26 20,39 2,3 1,7 2,11 3,29 5,59 8,88 13,-27 25,-55 37,-83 9,-22 18,-43 24,-66 2,-8 3,-17 3,-25 1,-19 2,-39 2,-58 0,-16 -1,-32 -3,-47 9,7 18,13 28,19 3,2 6,4 10,5 45,14 91,28 136,41 5,1 11,3 16,4 13,1 26,7 36,16 7,7 12,15 16,24 9,26 17,53 24,79 7,29 14,58 18,88 -24,10 -49,19 -73,27 -56,18 -113,31 -170,40 -50,8 -101,12 -151,13 -64,-1 -127,-7 -190,-19 -57,-11 -113,-26 -167,-45 -13,-5 -26,-9 -38,-15 7,-46 18,-92 32,-137 3,-9 5,-17 8,-26 3,-9 8,-18 15,-25 9,-10 21,-16 35,-18 3,0 5,0 8,-1 26,-7 52,-15 78,-23 24,-7 47,-14 71,-22 3,-1 6,-3 9,-4 10,-6 19,-13 28,-19 -3,16 -3,32 -3,48 0,24 1,48 3,72 2,11 6,23 9,33 11,30 24,60 37,89 5,12 11,24 17,36 3,-32 6,-63 9,-95 0,-3 2,-5 3,-8 5,-12 12,-24 18,-35 -8,-7 -16,-14 -23,-22 -1,-1 -2,-2 -2,-4 1,-1 2,-2 3,-4 10,-11 20,-22 30,-33 -26,-24 -53,-48 -79,-71 -4,-3 -6,-8 -6,-13 2,-25 4,-50 6,-75 -11,-21 -20,-44 -24,-68 -3,1 -7,1 -10,-1 -5,-4 -7,-10 -9,-16 -4,-14 -8,-28 -9,-42 -1,-7 -2,-14 0,-21 1,-3 2,-6 4,-7 2,-1 4,-1 7,0 -3,-27 -5,-53 -8,-80 -1,-7 0,-14 2,-20 3,-12 10,-23 20,-30 4,-3 5,-7 7,-11 2,-7 5,-13 10,-19 7,-9 17,-14 27,-18 9,-4 19,-6 29,-8 -5,-2 -10,-5 -14,-8 9,4 18,6 28,6 -8,-3 -14,-10 -17,-18z"/>
 </g>
</svg>
