<?xml version="1.0" encoding="UTF-8"?>
<!DOCTYPE svg PUBLIC "-//W3C//DTD SVG 1.1//EN" "http://www.w3.org/Graphics/SVG/1.1/DTD/svg11.dtd">
<!-- Creator: CorelDRAW X6 -->
<svg xmlns="http://www.w3.org/2000/svg" xml:space="preserve" width="13.5286mm" height="10.9609mm" version="1.1" style="shape-rendering:geometricPrecision; text-rendering:geometricPrecision; image-rendering:optimizeQuality; fill-rule:evenodd; clip-rule:evenodd"
viewBox="0 0 788 639"
 xmlns:xlink="http://www.w3.org/1999/xlink">
 <defs>
  <style type="text/css">
   <![CDATA[
    .fil0 {fill:#8386A2}
   ]]>
  </style>
 </defs>
 <g id="Слой_x0020_1">
  <metadata id="CorelCorpID_0Corel-Layer"/>
  <path class="fil0" d="M0 24l0 39c0,14 15,15 27,14 7,0 12,1 19,1l103 0c1,8 54,225 62,265 6,29 14,60 21,89 1,5 2,9 3,14l7 29c2,9 2,7 -2,13 -12,18 -19,33 -19,57 0,13 3,25 7,35 8,19 21,35 38,45 21,13 44,16 67,8 18,-6 37,-21 48,-36 11,-14 9,-16 15,-28l186 0c1,11 13,29 20,38 16,19 38,30 61,31l9 0c25,-1 50,-14 68,-38 25,-33 21,-89 -7,-117 -8,-8 -14,-13 -26,-18 -17,-7 -36,-9 -55,-6 -10,2 -21,7 -29,12l-17 14c-2,3 -2,4 -7,4l-62 0c-55,0 -109,0 -164,0 -2,-6 -14,-17 -20,-21 -32,-21 -44,-2 -44,-27l97 -2c33,0 65,-1 98,-1l124 0c7,0 43,-1 47,-2 6,-2 11,-6 13,-12 2,-6 4,-12 6,-18l19 -56c4,-13 8,-25 12,-37 4,-13 8,-25 13,-37 4,-12 8,-25 12,-37l19 -56c2,-6 18,-53 18,-57 0,-7 -1,-10 -5,-16 -9,-13 -23,-12 -43,-12 -13,0 -23,-1 -36,-1 -111,0 -222,0 -333,0 -50,0 -97,-1 -147,-1 -5,-19 -11,-59 -18,-76 -2,-6 -5,-10 -10,-13 -13,-10 -26,-5 -40,-7 -1,0 -5,0 -10,0l-52 0c-36,0 -76,1 -81,2 -4,0 -4,1 -6,3 -2,2 -3,3 -4,5 -2,3 -3,10 -3,15zm663 492c18,0 33,15 33,33 0,18 -15,33 -33,33 -18,0 -33,-15 -33,-33 0,-18 15,-33 33,-33zm-355 0c18,0 33,15 33,33 0,18 -15,33 -33,33 -18,0 -33,-15 -33,-33 0,-18 15,-33 33,-33z"/>
 </g>
</svg>
