<?xml version="1.0" encoding="UTF-8"?>
<!DOCTYPE svg PUBLIC "-//W3C//DTD SVG 1.1//EN" "http://www.w3.org/Graphics/SVG/1.1/DTD/svg11.dtd">
<!-- Creator: CorelDRAW X6 -->
<svg xmlns="http://www.w3.org/2000/svg" xml:space="preserve" width="13.5219mm" height="11.5781mm" version="1.1" style="shape-rendering:geometricPrecision; text-rendering:geometricPrecision; image-rendering:optimizeQuality; fill-rule:evenodd; clip-rule:evenodd"
viewBox="0 0 842 721"
 xmlns:xlink="http://www.w3.org/1999/xlink">
 <defs>
  <style type="text/css">
   <![CDATA[
    .fil0 {fill:#8386A2;fill-rule:nonzero}
   ]]>
  </style>
 </defs>
 <g id="Слой_x0020_1">
  <metadata id="CorelCorpID_0Corel-Layer"/>
  <g id="_886753488">
   <g>
    <g>
     <path class="fil0" d="M150 0l26 0c42,2 85,15 114,46 32,34 42,82 43,127 1,47 -6,97 -37,134 -30,36 -77,53 -123,53 -47,2 -97,-11 -131,-46 -29,-30 -40,-72 -43,-113l0 -42c3,-42 14,-86 44,-116 28,-28 67,-41 106,-45zm-1 76l0 0c-16,5 -25,21 -29,37 -7,30 -7,61 -6,92 2,21 4,43 14,62 17,27 64,25 78,-4 12,-26 12,-55 13,-83 -1,-28 -1,-58 -14,-84 -10,-20 -36,-26 -56,-19z"/>
    </g>
    <path class="fil0" d="M571 0l104 0c-134,240 -266,481 -400,721l-107 0c135,-240 268,-481 403,-721z"/>
    <g>
     <path class="fil0" d="M535 430c22,-37 64,-60 106,-66 53,-7 111,0 152,37 31,27 44,68 48,108l0 64c-4,37 -14,75 -41,103 -26,27 -62,42 -99,46l-49 0c-39,-4 -79,-19 -105,-49 -29,-33 -37,-77 -39,-119 -1,-42 3,-86 25,-123zm119 9l0 0c-15,7 -22,24 -26,40 -6,31 -6,64 -4,96 2,20 4,41 17,57 12,16 36,20 55,12 17,-8 24,-26 28,-43 6,-35 6,-70 2,-105 -2,-16 -6,-33 -16,-46 -13,-15 -37,-18 -55,-10z"/>
    </g>
   </g>
  </g>
 </g>
</svg>
